<svg xmlns="http://www.w3.org/2000/svg" viewBox="0 0 256 256"><defs><style>.cls-1{fill:#b95a8c;}.cls-2{fill:#d5b3ba;}.cls-3{fill:#c6b6d1;}.cls-4{fill:#d0abb3;}.cls-5{fill:#377087;}.cls-6{fill:#d3d6e5;}.cls-7,.cls-9{fill:none;stroke-width:2.08px;}.cls-7{stroke:#fff;stroke-miterlimit:10;}.cls-8{fill:#21617a;}.cls-9{stroke:#21617a;stroke-linecap:round;stroke-linejoin:round;}</style></defs><g id="Layer_9" data-name="Layer 9"><path class="cls-1" d="M215,253.65v33.19a39.93,39.93,0,0,1-39.81,39.83H78.3a39.94,39.94,0,0,1-39.81-39.83V253.65A39.93,39.93,0,0,1,78.3,213.84h23.34a6.6,6.6,0,0,0,6.48-5.33,155.62,155.62,0,0,0,2.46-20.16h32.13a156.7,156.7,0,0,0,2.47,20.16,6.6,6.6,0,0,0,6.46,5.33h23.57A39.92,39.92,0,0,1,215,253.65Z"/><path class="cls-2" d="M171.75,104.9s28.55,57.83-4.34,100.74c0,0,.37-20.87-13.73-34.6"/><path class="cls-3" d="M179.08,133.27c0,10.45-10.22,70.8-54.39,70.8-39.11,0-54.39-46.86-54.39-70.8,0-39.11,19.76-52.78,54.39-52.78S179.08,94.16,179.08,133.27Z"/><rect class="cls-3" x="174.56" y="126.2" width="10.74" height="25.75" rx="2.58"/><path class="cls-4" d="M70.92,142.28s-23.37-72.2,53.77-72.2,53.4,72.2,53.4,72.2S175.94,83.58,118.78,85C67.59,86.21,70.92,142.28,70.92,142.28Z"/><path class="cls-4" d="M118.05,87.25a214.27,214.27,0,0,1-34.79,38.56c-21.8,18.95-4.4,53.27-4.4,53.27s-35.28-36.8-11.71-78.25C91.53,58,118.05,87.25,118.05,87.25Z"/><path class="cls-2" d="M108.14,86.13s11.07,37.79,81.57,45.53C189.71,131.66,159.13,53.41,108.14,86.13Z"/><path class="cls-4" d="M115,67.46a32.61,32.61,0,0,0-10-16.38,9.15,9.15,0,0,1,7.35,1.51c.76-2.38-.77-4.83-2.22-6.86L104.48,38A18.22,18.22,0,0,1,115,43.38l-4.71-16.87A46.86,46.86,0,0,1,120.7,36.79a28.82,28.82,0,0,1,6-13.6,72.87,72.87,0,0,0,2.19,12.63,20.24,20.24,0,0,1,15.36-7.6A23.46,23.46,0,0,0,139,41.64c4.08-1.5,9.22-2.8,12.31.26-4.51,3.59-9,7.2-12.81,11.56S131.7,63,130.81,68.72"/><path class="cls-4" d="M63.73,100.32C52,98.65,40.45,104.38,31.15,111.69a24.17,24.17,0,0,1,8.1-12.61,39.22,39.22,0,0,0-15.17-4.67,36.7,36.7,0,0,1,17.61-8.26A89.47,89.47,0,0,0,29.3,76.79a30,30,0,0,1,15,1.93,28.2,28.2,0,0,1-2.37-17.09l8.28,8.24a20.84,20.84,0,0,1,6.47-18.62A28.45,28.45,0,0,0,61.31,62.5a21,21,0,0,1,10.5-8.44,44.89,44.89,0,0,0-.91,34.13"/><path class="cls-4" d="M167.72,80.44a28.16,28.16,0,0,0,5.81-19.76A20.46,20.46,0,0,1,179,69.39a25.53,25.53,0,0,0,4.24-12.76A21.38,21.38,0,0,1,187,69.39a39.81,39.81,0,0,0,6.19-9.89,21.32,21.32,0,0,1,1.48,12.21,21.59,21.59,0,0,1,12-3.59l-7.55,10.33a18.67,18.67,0,0,1,10,7.79,40.09,40.09,0,0,0-12.07-.72,14.05,14.05,0,0,1,.9,10.21c-3.93-7.27-11.07-7.37-18.89-4.67"/><rect class="cls-5" x="110.77" y="62.74" width="24.42" height="10.9" rx="2.62"/><rect class="cls-5" x="55.39" y="88.18" width="24.42" height="10.9" rx="2.62" transform="translate(-47.88 94.23) rotate(-54.47)"/><rect class="cls-5" x="160.27" y="80.95" width="24.42" height="10.9" rx="2.62" transform="translate(121.99 -99.79) rotate(48.22)"/><path class="cls-6" d="M113.15,140.76S102.21,154,124.69,154s12.25-12.74,12.25-12.74a15.92,15.92,0,0,1-6.07-4.92,7.71,7.71,0,0,0-12.1,0A13.66,13.66,0,0,1,113.15,140.76Z"/><rect class="cls-7" x="74.26" y="123.11" width="43.32" height="19.17" rx="4.61"/><rect class="cls-7" x="131.56" y="123.11" width="43.32" height="19.17" rx="4.61"/><path class="cls-7" d="M117.58,132.7s7.11-7.51,14,0"/><circle class="cls-1" cx="106.71" cy="134.31" r="5.23"/><circle class="cls-1" cx="142.17" cy="134.31" r="5.23"/><path class="cls-8" d="M121,168.46s-2.2,11.48-10.45,8.34S109.23,164,109.23,164"/><path class="cls-9" d="M102.87,150.73a17,17,0,0,1-8.75,12"/><path class="cls-9" d="M100,157.67s15.49,17.2,41.1,9.22"/></g></svg>