<svg xmlns="http://www.w3.org/2000/svg" viewBox="0 0 256 256"><defs><style>.cls-1{fill:#497e92;}.cls-2{fill:#d3d6e5;}.cls-3{fill:#c679a2;}.cls-4{fill:#21617a;}.cls-5{fill:#dadce9;}.cls-11,.cls-6,.cls-9{fill:none;stroke-width:2.12px;}.cls-6{stroke:#c6b6d1;}.cls-11,.cls-6{stroke-linecap:round;stroke-linejoin:round;}.cls-7{fill:#b95a8c;}.cls-8{fill:#c6b6d1;}.cls-9{stroke:#b95a8c;stroke-miterlimit:10;}.cls-10{fill:#d0abb3;}.cls-11{stroke:#d4b3ba;}</style></defs><g id="Layer_6" data-name="Layer 6"><path class="cls-1" d="M152.38,186.21v.08c0,11.23-19.61,14.88-19.61,14.88l2.9,9.79a21.6,21.6,0,0,1-17.41-.14l2.84-9.65s-19.84-3.69-19.58-15.1c1.13-8.17,1.42-14.62,1.42-14.62h48S151.21,178,152.38,186.21Z"/><path class="cls-2" d="M226.1,244.69V282a44.8,44.8,0,0,1-44.67,44.67H72.68A44.8,44.8,0,0,1,28,282V244.69A44.8,44.8,0,0,1,72.68,200H92.92a7.41,7.41,0,0,0,7.27-6c.53-2.74,1-5.46,1.33-8-.26,11.41,19.58,15.1,19.58,15.1l-2.84,9.65a21.6,21.6,0,0,0,17.41.14l-2.9-9.79s19.61-3.65,19.61-14.88c.35,2.48.79,5.12,1.31,7.78a7.39,7.39,0,0,0,7.24,6h20.5A44.8,44.8,0,0,1,226.1,244.69Z"/><path class="cls-3" d="M121.1,201.17l-2.84,9.65-2.2,7.42C92.64,215.28,91.43,200,91.43,200c2.11-11.35,10.09-14,10.09-14C101.26,197.48,121.1,201.17,121.1,201.17Z"/><path class="cls-3" d="M162.44,200s-1.21,15.26-24.63,18.22L135.67,211l-2.9-9.79s19.61-3.65,19.61-14.88v-.22S160.33,188.67,162.44,200Z"/><rect class="cls-4" x="66.73" y="116.9" width="9.75" height="24.62" rx="2.46"/><rect class="cls-4" x="173.28" y="116.9" width="9.75" height="24.62" rx="2.46"/><circle class="cls-5" cx="131.71" cy="49.65" r="30.36"/><path class="cls-5" d="M154.91,30.08a60.64,60.64,0,0,0,32.37,24.48s-11,11.1-30,10.2"/><path class="cls-6" d="M65.06,168.72c-3.07-9.23-4.89-19.59-.92-28.47,1.65-3.7,4.22-6.91,6.26-10.42s3.57-7.58,2.84-11.57c0,0-.58,6.61-9.15,14.37"/><path class="cls-6" d="M185.07,160.59a33,33,0,0,0,0-20.4,66.37,66.37,0,0,0-3.85-8.72l-6.51-13s5.84,8.88,13.37,12.39"/><path class="cls-4" d="M180.53,146.85a30.23,30.23,0,0,1-21.83,29,51.48,51.48,0,0,0-12.9,6.1c-7,4.39-14.22,6.86-20.82,6.86-5.41,0-12.15-2.45-19-6.8a54.59,54.59,0,0,0-14.58-6.12,30.21,30.21,0,0,1-22-29.08,30.59,30.59,0,0,1,1.11-8.18A47,47,0,0,0,72,125.14v-.9c0-35.68,23.71-64.61,53-64.61s53,28.93,53,64.61v.41a51.84,51.84,0,0,0,1.5,14.11A30.32,30.32,0,0,1,180.53,146.85Z"/><path class="cls-7" d="M134.56,57C127,55.14,123,55.14,115.41,57a5.72,5.72,0,0,1-6.79-3.09l-.26-.66c-1-2.57.93-5.82,4.44-6.7,9.6-2.4,14.77-2.4,24.37,0,3.51.88,5.45,4.13,4.43,6.7l-.25.66A5.72,5.72,0,0,1,134.56,57Z"/><path class="cls-8" d="M72,127.91S55.21,51,125,51s53,76.91,53,76.91-10.59-39.22-53-39.22-53,40.68-53,40.68"/><circle class="cls-9" cx="97.83" cy="116.9" r="22.65"/><circle class="cls-9" cx="152.68" cy="116.9" r="22.65"/><path class="cls-9" d="M119.72,111.09a10.83,10.83,0,0,1,11.06,0"/><circle class="cls-10" cx="108.87" cy="117.86" r="4.98"/><circle class="cls-10" cx="141.03" cy="117.86" r="4.98"/><path class="cls-1" d="M137.17,133.85c0,6.58-5.34,7.67-11.92,7.67s-11.91-1.09-11.91-7.67a11.92,11.92,0,0,1,23.83,0Z"/><path class="cls-11" d="M141,142.3s2,12.8,14,15.42"/><path class="cls-11" d="M146,152.49s-10.86,9.36-32.16,9.48"/></g></svg>