<svg xmlns="http://www.w3.org/2000/svg" viewBox="0 0 256 256"><defs><style>.cls-1{fill:#21617a;}.cls-2,.cls-7{fill:none;stroke-miterlimit:10;}.cls-2{stroke:#d0abb3;stroke-width:7.94px;}.cls-2,.cls-7,.cls-8{stroke-linecap:round;}.cls-3{fill:#c6b6d1;}.cls-4{fill:#ddc1c7;}.cls-5{fill:#b95a8c;}.cls-6{fill:#d3d6e5;}.cls-7{stroke:#21617a;stroke-width:2.27px;}.cls-8{fill:#fff;stroke:#b95a8c;stroke-linejoin:round;stroke-width:1.98px;}</style></defs><g id="Layer_4" data-name="Layer 4"><path class="cls-1" d="M182.43,201.78H156a7.41,7.41,0,0,1-7.26-6A176.07,176.07,0,0,1,146,173.2H109.9a176.07,176.07,0,0,1-2.76,22.62,7.41,7.41,0,0,1-7.27,6H73.68A44.8,44.8,0,0,0,29,246.45v37.26a44.81,44.81,0,0,0,44.67,44.68H182.43a44.81,44.81,0,0,0,44.67-44.68V246.45A44.8,44.8,0,0,0,182.43,201.78Z"/><path class="cls-2" d="M102.73,196.64s-1.71,8.63,7.68,13.49"/><path class="cls-2" d="M153.12,196.64s1.71,8.63-7.68,13.49"/><path class="cls-3" d="M124.32,210.84s29.94-23,29.94,0-29.94,0-29.94,0"/><path class="cls-3" d="M132.55,210.84s-29.94,23-29.94,0,29.94,0,29.94,0"/><rect class="cls-4" x="119.99" y="202.4" width="16.88" height="16.88" rx="3.58"/><ellipse class="cls-5" cx="128.43" cy="99.64" rx="74.1" ry="51.09"/><path class="cls-6" d="M184,133c0-15-4.35-31.76-9.32-46.71C166.81,62.57,154,43.45,128.43,43.45c-24.62,0-37.69,19.16-45.87,42.92-5.13,14.93-9.7,31.68-9.7,46.64,0,25,10.36,38.9,25.94,45.62a11.6,11.6,0,0,1,5.52,4.83c3,5.3,12.66,9.18,24.11,9.18s21.1-3.88,24.12-9.18a11.63,11.63,0,0,1,5.51-4.83C173.65,171.91,184,158,184,133Z"/><path class="cls-6" d="M72.72,137.8h0c-2.65.36-5.25-2.56-5.77-6.48l-2.69-20.2c-.52-3.92,1.22-7.42,3.88-7.77h0c2.65-.35,5.25,2.56,5.77,6.48L76.6,130C77.12,134,75.38,137.45,72.72,137.8Z"/><path class="cls-6" d="M184.72,137.8h0c2.65.36,5.25-2.56,5.77-6.48l2.69-20.2c.53-3.92-1.22-7.42-3.87-7.77h0c-2.65-.35-5.25,2.56-5.77,6.48L180.85,130C180.32,134,182.07,137.45,184.72,137.8Z"/><path class="cls-5" d="M76.74,139.44h0c-3.47,0-6.31-3.87-6.31-8.59V103c0-4.72,6.31-6.32,6.31-6.32,4.93,6,5.27,13.56,5.27,18.28l1,15.92C83.05,135.57,80.21,139.44,76.74,139.44Z"/><path class="cls-5" d="M180.1,139.44h0c-3.8,0-6.91-3.87-6.91-8.59l1.13-15.92c.89-14.27,5.78-18.28,5.78-18.28,3.8,0,6.91,1.6,6.91,6.32v27.88C187,135.57,183.9,139.44,180.1,139.44Z"/><path class="cls-5" d="M117.62,103.35c-7.42-.52-11.27.22-18,3.45-3.21,1.54-7.24,1-9.27-1.73h0c-2-2.78-.47-7.48,3.85-9.56,9.06-4.35,14.24-5.34,24.26-4.65,4.79.32,8,4.12,7.12,7.45h0C124.74,101.65,121.17,103.59,117.62,103.35Z"/><path class="cls-5" d="M157.82,110.33c-6.89-2.82-10.77-3.33-18.15-2.38-3.53.45-7.21-1.28-8.26-4.56h0c-1-3.28,1.91-7.25,6.67-7.86,10-1.28,15.19-.59,24.49,3.22,4.44,1.82,6.26,6.42,4.4,9.32h0C165.11,111,161.11,111.68,157.82,110.33Z"/><circle class="cls-1" cx="112.31" cy="113.74" r="3.74"/><circle class="cls-1" cx="142.57" cy="113.74" r="3.74"/><path class="cls-3" d="M147.77,135.12a6.79,6.79,0,0,1-6.8,6.78,5.93,5.93,0,0,1-1.13-.12,7.23,7.23,0,0,1-.44.64A12.9,12.9,0,0,1,119,143.78a11.61,11.61,0,0,1-1.54-2.09,6.13,6.13,0,0,1-1.61.21,6.78,6.78,0,0,1,0-13.56,6.13,6.13,0,0,1,1.61.21,13,13,0,0,1,22.35-.09,5.93,5.93,0,0,1,1.13-.12A6.79,6.79,0,0,1,147.77,135.12Z"/><path class="cls-7" d="M142,116.26a25.7,25.7,0,0,0,15.64-2.52"/><path class="cls-7" d="M112.78,116.26a25.7,25.7,0,0,1-15.64-2.52"/><path class="cls-8" d="M110.56,153.73h35.75s-.58,18.37-17.88,18.37S110.56,153.73,110.56,153.73Z"/></g></svg>