<svg xmlns="http://www.w3.org/2000/svg" viewBox="0 0 256 256"><defs><style>.cls-1{fill:#c679a2;}.cls-2{fill:#d3d6e5;}.cls-3{fill:#b95a8c;}.cls-12,.cls-4,.cls-8,.cls-9{fill:none;}.cls-4{stroke:#c679a2;}.cls-12,.cls-4,.cls-8{stroke-miterlimit:10;}.cls-12,.cls-13,.cls-4,.cls-8,.cls-9{stroke-width:1.98px;}.cls-5{fill:#c6b6d1;}.cls-6{fill:#d0abb3;}.cls-7{fill:#21617a;}.cls-8,.cls-9{stroke:#fff;}.cls-13,.cls-9{stroke-linecap:round;stroke-linejoin:round;}.cls-10{fill:#367087;}.cls-11{fill:#497e92;}.cls-12{stroke:#497e92;}.cls-13{fill:#fff;stroke:#b95a8c;}</style></defs><g id="Layer_9" data-name="Layer 9"><rect class="cls-1" x="67.4" y="184.49" width="120.05" height="49.68" rx="12"/><path class="cls-2" d="M174.2,199.85c-3.17,4.87-14.66,17.76-46.51,17.76s-43.92-12.89-47.31-17.76H99.51a7.39,7.39,0,0,0,7.26-6,171.8,171.8,0,0,0,2.76-22.62h36.06a173.89,173.89,0,0,0,2.78,22.62,7.39,7.39,0,0,0,7.24,6Z"/><path class="cls-3" d="M226.73,244.52v37.25a44.8,44.8,0,0,1-44.67,44.69H73.32a44.8,44.8,0,0,1-44.67-44.69V244.52a44.81,44.81,0,0,1,44.67-44.67h7.06c3.39,4.87,15.46,17.76,47.31,17.76S171,204.72,174.2,199.85h7.86A44.81,44.81,0,0,1,226.73,244.52Z"/><path class="cls-1" d="M68.88,200.06s4.63,21.06,58.55,19c0,0-39.17-11-40-28.09"/><path class="cls-1" d="M186,200s-4.6,21.11-58.52,19c0,0,39.12-11,39.94-28.09"/><path class="cls-4" d="M115.76,217.62A115,115,0,0,0,111.53,236c-1.26,9.41,0,21.84,0,21.84"/><path class="cls-4" d="M141.46,216.7s4.07,21.79.86,35.75"/><path class="cls-1" d="M117.76,215.77s10.28,2.15,19.32,0v3.41l-19.32,0Z"/><path class="cls-5" d="M177.77,73.41v50.9c0,8.06-9.14,17.53-16.17,23.62a22.92,22.92,0,0,0-7.94,17.32h0a13.55,13.55,0,0,1-13.52,13.51H114.72a11.53,11.53,0,0,1-11.53-11.53v-2a22.9,22.9,0,0,0-7.88-17.26c-7-6.09-16.07-15.57-16.07-23.63V73.41a23.89,23.89,0,0,1,23.81-23.82H154A23.89,23.89,0,0,1,177.77,73.41Z"/><rect class="cls-5" x="72.74" y="110.58" width="12.72" height="23.63" rx="3.2"/><rect class="cls-5" x="171.46" y="110.58" width="12.72" height="23.63" rx="3.2"/><path class="cls-6" d="M89.25,62.31c-10,11.1-14.35,11.32-21.85,27.91l5.53-4a85.07,85.07,0,0,0-.59,23.42l3-4.59c-.61,7.54,1.84,15,3.9,18,.75-15.54,1.2-25.33,7.51-40.46l1.65,4.56a48.83,48.83,0,0,1,13.35-13.41l.47,5.14a66.22,66.22,0,0,1,19.09-9.54l1,4.46A10.62,10.62,0,0,1,139.5,75a6.45,6.45,0,0,0,2.88-4.85,34,34,0,0,1,14.14,11.35,8.65,8.65,0,0,0,1.1-3.84A39.68,39.68,0,0,1,171.86,94.5c3,6.89,4.31,16.65,6,24,1.51-4.61,2.34-11,3-15.85l2.23,3.51A29.62,29.62,0,0,0,180.3,88a4.35,4.35,0,0,1,3.26,1.22c-.15-5.71-7.78-21.41-17.5-33.13"/><path class="cls-7" d="M105.7,109.55a2.18,2.18,0,0,1-2.12-2.84,8.44,8.44,0,0,1,15.9,0,2.19,2.19,0,0,1-2.12,2.84Z"/><path class="cls-7" d="M139.71,109.55a2.23,2.23,0,0,1-2-3.08,8.44,8.44,0,0,1,15.81.24,2.18,2.18,0,0,1-2.12,2.84Z"/><rect class="cls-8" x="95.33" y="109.47" width="27.08" height="9.03" rx="2.28"/><rect class="cls-8" x="134.6" y="109.47" width="27.08" height="9.03" rx="2.28"/><path class="cls-8" d="M121.9,111.92a12.64,12.64,0,0,1,6.36-1.62,13.19,13.19,0,0,1,6.76,1.8"/><line class="cls-9" x1="95.33" y1="113.98" x2="79.54" y2="113.98"/><line class="cls-9" x1="175.78" y1="113.98" x2="161.68" y2="113.98"/><path class="cls-2" d="M133.29,127.94c0,7.27-2.14,6.45-4.78,6.45s-4.79.82-4.79-6.45,2.14-13.16,4.79-13.16S133.29,120.67,133.29,127.94Z"/><path class="cls-10" d="M79.87,73.63c-5.24,0-5.48-5.94-4.54-11.09C80,37,86.18,21.7,128.51,21.7c44.26,0,48.59,15.58,53.25,41.16.94,5.15.53,10.77-4.71,10.77L128.46,58.85Z"/><path class="cls-11" d="M167.88,75.69c-24.24-13.25-54.51-11.56-78.85,0-3.28,1.68-7.36.89-9.16-2.06h0c-1.81-2.95-.32-7.21,3.45-9.14,33.12-12.76,57.45-12.65,90.28,0,3.77,1.93,5.26,6.19,3.45,9.14h0C175.25,76.58,171.17,77.37,167.88,75.69Z"/><path class="cls-12" d="M105,65C106.6,34,128.51,21.7,128.51,21.7a62.42,62.42,0,0,1,21.75,40.23"/><path class="cls-11" d="M134.6,20.59c0,2-2.73,2.15-6.09,2.15s-6.1-.15-6.1-2.15,2.73-3.62,6.1-3.62S134.6,18.59,134.6,20.59Z"/><path class="cls-13" d="M142.32,144.5a13.79,13.79,0,1,1-27.58,0c0-7.61,6.17-3.52,13.79-3.52S142.32,136.89,142.32,144.5Z"/><rect class="cls-6" x="93.7" y="92.59" width="26.04" height="6.36" rx="1.6" transform="translate(-12.12 15.53) rotate(-7.88)"/><rect class="cls-6" x="136.5" y="92.59" width="26.04" height="6.36" rx="1.6" transform="translate(284.5 211.12) rotate(-172.12)"/></g></svg>