<svg xmlns="http://www.w3.org/2000/svg" viewBox="0 0 256 256"><defs><style>.cls-1{fill:#c6b6d1;}.cls-2{fill:#21617a;}.cls-3{fill:#d3d6e5;}.cls-4{fill:#fff;stroke:#b95a8c;stroke-linejoin:round;}.cls-4,.cls-7{stroke-linecap:round;stroke-width:2.29px;}.cls-5{fill:#497e92;}.cls-6{fill:#d8bac1;}.cls-7{fill:none;stroke:#d8bac1;stroke-miterlimit:10;}.cls-8{fill:#b95a8c;}</style></defs><g id="Layer_11" data-name="Layer 11"><path class="cls-1" d="M175.6,213.39H152a6.6,6.6,0,0,1-6.47-5.31,156,156,0,0,1-2.46-20.16H111a156,156,0,0,1-2.46,20.16,6.58,6.58,0,0,1-6.47,5.31H78.69A39.92,39.92,0,0,0,38.88,253.2v33.21a39.93,39.93,0,0,0,39.81,39.81H175.6a39.93,39.93,0,0,0,39.81-39.81V253.2A39.93,39.93,0,0,0,175.6,213.39Z"/><ellipse class="cls-2" cx="126.83" cy="137.93" rx="61.14" ry="66.27"/><path class="cls-1" d="M89.83,61.36s-40,17.43-23.56,85.58c0,0-.57-51.29,38.88-64.46"/><path class="cls-3" d="M84.06,66h0a21.32,21.32,0,0,0,23.86,21.21c22.4-2.79,50.17,6.5,60,30,15.8,37.74,6.47,84.88,6.47,84.88S241.35,127,197,69.67c-27.28-35.2-72.57-30.3-96.66-24.44A21.3,21.3,0,0,0,84.06,66Z"/><rect class="cls-2" x="56.62" y="129" width="15.33" height="27.79" rx="2.76"/><path class="cls-4" d="M106,159.62s6.26,3.95,17.76,5.67,18.54.43,18.54.43-5.71,15.86-21.35,13.52S106,159.62,106,159.62Z"/><ellipse class="cls-5" cx="127.36" cy="148.4" rx="13.88" ry="8.17"/><circle class="cls-6" cx="108.74" cy="130.73" r="4.78"/><circle class="cls-6" cx="146.03" cy="130.73" r="4.78"/><line class="cls-7" x1="108.74" y1="130.73" x2="90.92" y2="130.73"/><line class="cls-7" x1="163.85" y1="130.73" x2="146.03" y2="130.73"/><rect class="cls-8" x="155.42" y="93.66" width="27.46" height="10.94" rx="1.22" transform="translate(-25.42 123.26) rotate(-37.44)"/></g></svg>