<svg xmlns="http://www.w3.org/2000/svg" viewBox="0 0 256 256"><defs><style>.cls-1{fill:#c06a97;}.cls-2{fill:#c6b6d1;}.cls-3{fill:none;stroke:#d0abb3;}.cls-3,.cls-7{stroke-linecap:round;stroke-linejoin:round;stroke-width:1.98px;}.cls-4{fill:#d0abb3;}.cls-5{fill:#367087;}.cls-6{fill:#b95a8c;}.cls-7{fill:#fff;stroke:#b95a8c;}.cls-8{fill:#497e92;}</style></defs><g id="Layer_11" data-name="Layer 11"><path class="cls-1" d="M100.1,197.86s2.54-9.67,27-9.67,25.53,7.32,25.53,7.32l5.28-22L143.4,153.15,92.49,167.51Z"/><path class="cls-2" d="M181.43,202.06H155a7.4,7.4,0,0,1-7.26-5.95A176.07,176.07,0,0,1,145,173.49H108.9a176.07,176.07,0,0,1-2.76,22.62,7.4,7.4,0,0,1-7.27,5.95H72.68A44.81,44.81,0,0,0,28,246.74V284a44.8,44.8,0,0,0,44.67,44.67H181.43A44.8,44.8,0,0,0,226.1,284V246.74A44.81,44.81,0,0,0,181.43,202.06Z"/><polyline class="cls-3" points="103.93 200.04 127.19 227.88 150.65 200.04"/><circle class="cls-4" cx="127.29" cy="230.32" r="7.46"/><path class="cls-1" d="M70.32,94s-8.17,38.62,14.42,121.6h6.82s10.87-16.09,17.15-48.07"/><path class="cls-1" d="M183.25,94s8.48,50.08-14.42,121.6H162s-10.87-16.09-17.15-48.07"/><path class="cls-1" d="M85.1,216.84s-4,9.2,3.7,16.23a14.09,14.09,0,0,0,2-16.23"/><path class="cls-1" d="M162.25,216.84A17.23,17.23,0,0,0,164,233.07s8.73-6.61,4-16.23"/><path class="cls-5" d="M180.74,118c0,29.79-24.16,67.28-53.95,67.28s-54-37.49-54-67.28a54,54,0,1,1,107.91,0Z"/><path class="cls-1" d="M126.79,82.75s-6.12-7.35-21.32-7.35c-19.37,0-30.87,25-32.64,42.55,0,0-12.27-45.85,12.26-61.59,15.21-9.75,28.86-7.94,36.23-5.68a17.43,17.43,0,0,0,11.55-.61c7.7-3.07,21.91-5.9,35.61,6.29C193.32,78.46,180.74,118,180.74,118,179,100.37,167.48,75.4,148.1,75.4c-15.19,0-21.31,7.35-21.31,7.35"/><rect class="cls-5" x="67.31" y="113.75" width="11.05" height="25.68" rx="2.78"/><rect class="cls-5" x="175.22" y="113.75" width="11.05" height="25.68" rx="2.78"/><rect class="cls-5" x="82.42" y="214.48" width="11.45" height="4.73" rx="1.19"/><rect class="cls-5" x="159.7" y="214.48" width="11.45" height="4.73" rx="1.19"/><path class="cls-1" d="M78.77,96.89s-4.4,21.6,3.65,29.71c0,0-10.14-6.06-10.54-21.63"/><path class="cls-1" d="M174.8,96.89s4.4,21.6-3.65,29.71c0,0,10.14-6.06,10.55-21.63"/><circle class="cls-4" cx="111.04" cy="118.76" r="5.01"/><line class="cls-3" x1="111.04" y1="118.76" x2="98.77" y2="118.76"/><circle class="cls-4" cx="142.53" cy="118.76" r="5.01"/><line class="cls-3" x1="154.8" y1="118.76" x2="142.53" y2="118.76"/><path class="cls-6" d="M113.41,147.17s9-12.32,13.64-1.3c0,0,4.85-10.54,13.69,1.35h-7.61l-7,1.07-8.78-1.52Z"/><path class="cls-7" d="M140.85,151.38a13.8,13.8,0,1,1-27.59,0c0-7.61,6.18-3.52,13.79-3.52S140.85,143.77,140.85,151.38Z"/><path class="cls-8" d="M127.19,138.28c-6.84,0-11.68-3.61-11-5.3a1.05,1.05,0,0,1,.3-.43c4-3.74,6.73-8.68,6.73-14.17v-5.2h8v5.19c0,5.54,3.1,10.17,6.83,14.26a1.29,1.29,0,0,1,.22.35C138.86,134.67,134,138.28,127.19,138.28Z"/><path class="cls-6" d="M113.15,109.41a30.49,30.49,0,0,0-13.67,2.7c-2.41,1-5.52.91-7.16-.57h0c-1.64-1.48-.6-4.19,2.65-5.54,6.8-2.83,10.75-3.61,18.45-3.65,3.68,0,6.24,2,5.69,3.89h0C118.56,108.16,115.88,109.4,113.15,109.41Z"/><path class="cls-6" d="M142.87,109.41a30.49,30.49,0,0,1,13.67,2.7c2.41,1,5.52.91,7.16-.57h0c1.64-1.48.6-4.19-2.65-5.54-6.81-2.83-10.75-3.61-18.45-3.65-3.68,0-6.24,2-5.69,3.89h0C137.46,108.16,140.14,109.4,142.87,109.41Z"/></g></svg>