<svg id="Layer_3" data-name="Layer 3" xmlns="http://www.w3.org/2000/svg" viewBox="0 0 256 256"><defs><style>.cls-1{fill:#b95a8c;}.cls-2{fill:#d3d6e5;}.cls-3{fill:#21617a;}.cls-4{fill:#c6b6d1;}.cls-5,.cls-7{fill:none;stroke-linecap:round;stroke-miterlimit:10;stroke-width:2.08px;}.cls-5{stroke:#21617a;}.cls-6{fill:#d0abb3;}.cls-7{stroke:#d0abb3;}</style></defs><path class="cls-1" d="M174.08,212.1H150.51a6.6,6.6,0,0,1-6.47-5.3,156,156,0,0,1-2.46-20.16H109.44A156,156,0,0,1,107,206.8a6.58,6.58,0,0,1-6.47,5.3H77.17a39.93,39.93,0,0,0-39.81,39.82v33.2a39.92,39.92,0,0,0,39.81,39.81h96.91a39.92,39.92,0,0,0,39.81-39.81v-33.2A39.93,39.93,0,0,0,174.08,212.1Z"/><path class="cls-2" d="M186,125.21c0,41.64-36.45,75.39-60.42,75.39-25,0-60.41-33.75-60.41-75.39s27.05-57.89,60.41-57.89S186,83.58,186,125.21Z"/><path class="cls-3" d="M132,153.54a7.54,7.54,0,0,0-6.74,4.2A7.53,7.53,0,0,0,111,161.09a14.28,14.28,0,0,0,28.56,0A7.54,7.54,0,0,0,132,153.54Z"/><ellipse class="cls-4" cx="125.27" cy="144.14" rx="9.85" ry="5.27"/><circle class="cls-1" cx="106.24" cy="131.52" r="5.7"/><circle class="cls-1" cx="144.31" cy="131.52" r="5.7"/><path class="cls-3" d="M116.09,118.51c-1.14,2.44-1.88,2.45-10.73,2.54s-16,4.85-18,3,4.68-12.62,17.86-12.77S117.23,116.07,116.09,118.51Z"/><path class="cls-3" d="M135.78,118.51c1.14,2.44,1.88,2.45,10.73,2.54s16,4.85,18,3-4.68-12.62-17.86-12.77S134.64,116.07,135.78,118.51Z"/><path class="cls-5" d="M94.91,157.52a56,56,0,0,0,30.71,9.25,57.24,57.24,0,0,0,30.95-9.25"/><path class="cls-6" d="M65.21,125.21S31.07,49.89,125.74,49.89c92.1,0,60.3,75.32,60.3,75.32s-13.24-49.94-60.3-49.94S65.21,125.21,65.21,125.21Z"/><path class="cls-6" d="M115.68,63.57a57.8,57.8,0,0,0,20.11,0c4.69-.77,9.41,1.19,10.89,4.58,3.89,8.9,6.72,15.39,10.51,24.08,1.75,4-1.71,8.24-7.29,8.94a174.56,174.56,0,0,1-48.32,0c-5.59-.7-9-4.93-7.3-8.94,3.8-8.69,6.63-15.18,10.51-24.08C106.28,64.76,111,62.8,115.68,63.57Z"/><ellipse class="cls-2" cx="64.33" cy="133.65" rx="10.46" ry="15.76"/><ellipse class="cls-2" cx="186.04" cy="133.65" rx="10.46" ry="15.76"/><path class="cls-7" d="M183.56,111.22c2.1,5.54-.76,11.57-2.83,17.12-2.45,6.55-3.85,13.61-3.06,20.56s3.93,13.78,9.36,18.18"/><path class="cls-7" d="M68,107.31c-1.82,3.51-1.33,7.75-.39,11.59,2.1,8.56,6.23,16.54,8,25.18s.41,18.77-6.47,24.27"/><path class="cls-7" d="M69.12,101.48c-.52,4.46-1,9-.05,13.42s3.57,8.66,7.69,10.45"/><path class="cls-7" d="M185.22,108.75l-2.57,6.81a13.31,13.31,0,0,1-2,3.85,4.86,4.86,0,0,1-3.83,1.91,3.07,3.07,0,0,1-3-2.75"/><path class="cls-6" d="M59.66,101.48s-9.6-40.54,23.48-55.37C119.42,29.85,111,14,111,14s77.09,27.53,79.66,74.85c0,0-15.59-24.42-65.93-24.42S59.66,101.48,59.66,101.48Z"/><path class="cls-1" d="M59.66,114.38a54.19,54.19,0,0,1,3.52-10.12,74.26,74.26,0,0,1,5.19-9.5A68.23,68.23,0,0,1,83.05,78.51,63.56,63.56,0,0,1,102.6,67.89a69.08,69.08,0,0,1,10.88-2.66,79.91,79.91,0,0,1,11.12-.91,75.1,75.1,0,0,1,22,3,66,66,0,0,1,19.95,9.79A67.44,67.44,0,0,1,182,92.71a72.46,72.46,0,0,1,5.55,9.3,52.16,52.16,0,0,1,3.83,10q-1.29-2.33-2.77-4.51t-3-4.29a82.67,82.67,0,0,0-6.74-7.91,76.19,76.19,0,0,0-15.86-12.73,68.24,68.24,0,0,0-18.43-7.64,69.61,69.61,0,0,0-9.83-1.78,76,76,0,0,0-10-.52A71.77,71.77,0,0,0,105,75.4a65.38,65.38,0,0,0-18.07,8.37A76.91,76.91,0,0,0,71.6,97.21,88.87,88.87,0,0,0,59.66,114.38Z"/><path class="cls-6" d="M112,33.58s26.61,2,24.82-14.71c0,0,18.16,8.79,38.11,35.72"/></svg>