<svg xmlns="http://www.w3.org/2000/svg" viewBox="0 0 256 256"><defs><style>.cls-1{fill:#d0abb3;}.cls-2{fill:#21617a;}.cls-3{fill:#c6b6d1;}.cls-4{fill:#b95a8c;}.cls-5{fill:none;stroke:#b95a8c;stroke-linecap:round;stroke-linejoin:round;stroke-width:1.98px;}</style></defs><g id="Layer_8" data-name="Layer 8"><path class="cls-1" d="M226.91,244.29v37.27a44.8,44.8,0,0,1-44.67,44.67H73.5a44.8,44.8,0,0,1-44.67-44.67V244.29A44.81,44.81,0,0,1,73.5,199.62H99.69a7.42,7.42,0,0,0,7.26-6,172.18,172.18,0,0,0,2.76-22.62h36.08a174.2,174.2,0,0,0,2.76,22.62,7.36,7.36,0,0,0,3.37,4.84,7.23,7.23,0,0,0,3.89,1.11h26.43A44.81,44.81,0,0,1,226.91,244.29Z"/><path class="cls-2" d="M60.3,129.71c.91-1.86,2.31-3.25,3.23-5.09.66-1.32,1.13-2.73,1.78-4.06a39.75,39.75,0,0,1,5-7.87,31.59,31.59,0,0,1,6.09-5.8c2.34-1.65,5-2.38,6.38-5,1.07-2,.3-5.38-2.36-5.81-6.49-1-12.79,6.22-16.22,11.11a40.2,40.2,0,0,0-4.72,9.4,29.45,29.45,0,0,0-1.62,6.11c-.32,2.43.44,4.12.7,6.58.08.82,1.28,1.38,1.73.47Z"/><path class="cls-2" d="M37.74,82.07c5.09,5.19,11.52,8,18.19,10.59,7.4,2.88,16,6.92,24.09,4.8,3.37-.88,3.8-6.68,0-7.26-12.7-2-27.85-3.35-37.8-12.6-3-2.77-7.34,1.55-4.48,4.47Z"/><path class="cls-2" d="M41.2,68.61a30.22,30.22,0,0,1,21.59,6.56C68.14,79.48,72,85.69,77.64,89.5c2.94,2,7.52-1.35,6.22-4.78-3-8-11.24-14.2-18.66-18-7.87-4-16.07-5.81-24.83-4.28-3.43.6-2.67,6.42.83,6.12Z"/><path class="cls-2" d="M52.49,80a46.23,46.23,0,0,0,30,10.88c5.08-.1,5-7.51,0-7.84A53,53,0,0,1,56.6,74.7c-3.2-2-7.11,2.83-4.11,5.33Z"/><path class="cls-2" d="M43.27,104.79c4.58-3.76,13.23-2.51,18.66-2.52,5.25,0,13.4,2.47,17.49-1.49a2.61,2.61,0,0,0,.4-3.1c-2.11-3.51-5.78-3.55-9.57-3.86a77.3,77.3,0,0,0-13.86,0c-6.71.65-13.85,1.17-17.65,7.48-1.79,3,2.12,5.47,4.53,3.5Z"/><path class="cls-2" d="M58.77,54.23C61.52,67.38,74.05,79.7,86.16,84.72c1.38.58,3-.18,4-1C95.8,78.87,82.61,73.25,80,71.13,73.37,65.71,69.2,58.77,64.38,51.86a3.09,3.09,0,0,0-5.61,2.37Z"/><path class="cls-2" d="M93.14,78.26c.12-7.46-3-14.22-7-20.34-2.94-4.43-9-14.18-15.61-11.75a3.27,3.27,0,0,0-2.29,3c-.26,5.33,6.81,10.47,9.58,14.44a105.88,105.88,0,0,1,9.64,16.19c1.31,2.91,5.67,1.28,5.72-1.55Z"/><path class="cls-2" d="M73.73,34.61c0,9,6.08,17.83,11.55,24.62s13,14.93,22,15.94c3.68.41,4-4.53,1.69-6.24-3-2.25-6.45-3.88-9.4-6.28a62.38,62.38,0,0,1-8.8-8.85c-5.19-6.3-8.48-13.43-12.57-20.39a2.39,2.39,0,0,0-4.42,1.2Z"/><path class="cls-2" d="M108.71,68.21c-.28-8.55-1.66-17.75-6.65-24.95-2-2.9-4.39-5.56-6.6-8.3s-4.15-6.49-8.1-6.33a3.46,3.46,0,0,0-3.18,2.43c-2.25,5.32,6.44,12.18,9.37,15.88,5.18,6.54,6.5,14.28,8.58,22.16,1,3.61,6.7,2.93,6.58-.89Z"/><path class="cls-2" d="M118.8,61.58a105.88,105.88,0,0,1-9.17-25c-.87-3.78-1.51-18.72-8.59-15.8s-2.39,17.34-.71,22.42c2.76,8.36,6.46,16.51,12.33,23.14,3.06,3.46,8.09-.94,6.14-4.73Z"/><path class="cls-2" d="M124.55,63.34c5.73-6.67,9.68-14.58,12.76-22.76,1.7-4.52,8.31-19.25,1.8-22.63s-7.77,13.13-8.69,16.33c-2.49,8.65-5.62,17.86-10.54,25.45-1.82,2.8,2.46,6.19,4.67,3.61Z"/><path class="cls-2" d="M89,52.57a43.81,43.81,0,0,0,6.27,10.9c2.36,3,5.31,6.89,9.42,7.08a2.68,2.68,0,0,0,2.55-3.36c-.73-3.27-4.12-5.58-6.18-8A55.34,55.34,0,0,1,95,50c-1.74-3.2-7.47-1-6,2.55Z"/><path class="cls-2" d="M202.7,121.66c.27-4.74.43-7.63-1.77-12a30.94,30.94,0,0,0-8.55-10.26c-5.67-4.46-17.49-9.51-24.29-5.2-3.06,1.93-2.19,6,.94,7.22,3,1.15,6.13.35,9.25.86a26.15,26.15,0,0,1,9.88,3.87,25.41,25.41,0,0,1,7.49,7.51c1.7,2.58,4.11,5.65,5.32,8.42.39.92,1.68.36,1.73-.47Z"/><path class="cls-2" d="M207.83,76.59c-9.94,8.7-24.81,9.76-37.21,11.29-4,.5-5.38,6.12-1,7.4,8,2.35,16.79-1.49,24.22-4.13,6.75-2.4,13.22-5.06,18.46-10.09,3-2.85-1.44-7.13-4.47-4.47Z"/><path class="cls-2" d="M202.38,59.31c-6.06,3.52-13.11,3.71-19.35,7-6.63,3.51-14.32,8.91-17,16.19-1.32,3.59,3.21,6.52,6.22,4.78,6.54-3.79,10.41-11.26,17-15.27,5.23-3.21,11.18-3.63,16.32-7.33,3.19-2.31.39-7.44-3.15-5.39Z"/><path class="cls-2" d="M193.51,73.25a52.85,52.85,0,0,1-26.15,7.54c-5.05.18-5,7.59,0,7.84a46.23,46.23,0,0,0,30.27-10c3.07-2.41-.87-7.25-4.12-5.33Z"/><path class="cls-2" d="M210.62,100.23c-3.61-6.41-10.84-7.09-17.5-7.93a79.22,79.22,0,0,0-13.86-.4c-3.84.2-7.37.18-9.59,3.65a2.6,2.6,0,0,0,.4,3.1c3.92,4,12.36,1.79,17.51,1.95,5.52.18,14-.79,18.51,3.13,2.41,2.09,6.2-.53,4.53-3.5Z"/><path class="cls-2" d="M186.46,50.22c-5.11,6.89-9.6,13.85-16.61,19.06-2.8,2.08-15.51,6.91-10,12a4.07,4.07,0,0,0,4,1c12.25-4.65,25.06-16.69,28.19-29.72.85-3.55-3.6-5.08-5.61-2.36Z"/><path class="cls-2" d="M162.7,77.31a99.74,99.74,0,0,1,9.89-15.55c3-3.93,9.5-8.11,9.49-13.51a3.21,3.21,0,0,0-2.29-3c-6.45-2.47-12.48,6.56-15.56,10.87C160,62,157,68.45,157,75.76c0,2.92,4.32,4.34,5.72,1.55Z"/><path class="cls-2" d="M169,38.35c-3.89,5.55-6.27,11.55-11.1,16.51a39.83,39.83,0,0,1-7.67,6.21c-2.87,1.77-6.18,2.81-8.86,4.85-2.43,1.85-2,6.32,1.69,6.24,7.59-.19,15.29-6.57,20.27-11.86s10.28-13,10.09-20.75a2.39,2.39,0,0,0-4.42-1.2Z"/><path class="cls-2" d="M148.29,66.15c2-6.52,3.22-13.39,7.17-19.1,3.15-4.57,11.08-8.52,9.46-14.82a3.35,3.35,0,0,0-3.18-2.43c-3.68.1-5.2,2.47-7.59,5-2.71,2.82-5.43,5.61-7.29,9.1-3.49,6.54-4.79,14.07-5.15,21.4-.19,3.87,5.49,4.4,6.58.89Z"/><path class="cls-2" d="M137.9,63.06a56.4,56.4,0,0,0,12.34-21c1.66-4.78,5.79-17.37-.83-20.13s-7.38,8.78-8.17,12.34c-1.91,8.66-5.31,16.29-9.48,24.08-2,3.81,3,8,6.14,4.73Z"/><path class="cls-2" d="M135.87,60.43c6.39-14.44,1.75-33.52-8.54-45a4.88,4.88,0,0,0-4.83-1.27,4.8,4.8,0,0,0-3,2.28,4.94,4.94,0,0,0,0,5c3.51,5.68,6.56,11.3,8.31,17.79s1.68,12.94,2,19.59c.12,2.93,4.67,4.8,6.07,1.64Z"/><path class="cls-2" d="M130.75,56.27a102.59,102.59,0,0,1-9.13-20.61A73.22,73.22,0,0,1,118.89,25c-.49-2.77-1-5.67-3.68-7.2a2.49,2.49,0,0,0-2.49,0c-6.35,4-1,15.64,1,20.8a78,78,0,0,0,12.38,21.24c2.17,2.63,6.4-.76,4.67-3.61Z"/><path class="cls-2" d="M155.87,47.47a54.55,54.55,0,0,1-6.31,8.93c-2.16,2.42-5.53,4.58-6.37,7.86a2.68,2.68,0,0,0,2.56,3.35c3.92,0,6.94-3.68,9.29-6.46a42.2,42.2,0,0,0,6.54-10.35c1.67-3.79-3.51-7.1-5.71-3.33Z"/><path class="cls-2" d="M73.88,96.65a40.15,40.15,0,0,0-12.1,6.3,68.16,68.16,0,0,0-5.42,4.3c-1.88,1.66-5.35,4.11-3.76,7l-.26-1.93-.3.86c-.65,1.91,1.57,3.09,3.1,2.39l.89-.42H53.5c2.92,1.33,4.75-1.59,6.63-3.36a55.56,55.56,0,0,1,4.68-3.94c3.45-2.56,7.25-4.56,10.91-6.79,2.27-1.38.81-5.12-1.84-4.36Z"/><path class="cls-2" d="M87.48,74.28a29,29,0,0,0-1.72-3.44c-.67-1-1.36-2.07-2.06-3.1s-1.41-2-2.14-3c-1.14-1.59-2.68-3.76-4.87-3.61l1.44.39-.6-.3a2.58,2.58,0,0,0-3.74,2.88c0,.22.09.44.14.65V63.19c-.66,1.91.69,3.74,1.8,5.2.75,1,1.49,2,2.22,3s1.43,2,2.15,3c.85,1.2,1.87,2.27,2.81,3.39a2.88,2.88,0,0,0,3.82.23,3,3,0,0,0,.75-3.76Z"/><path class="cls-2" d="M167.57,73.56c.65-.72,1.35-1.37,1.93-2.14l.12-.17c.22-.29.17-.22-.14.19a2.64,2.64,0,0,0,.32-.41c.24-.29.49-.58.74-.86a32.71,32.71,0,0,1,3.24-3.1c.29-.25.58-.5.88-.74.5-.41-.55.41-.18.14l.41-.31c.62-.45,1.26-.87,1.91-1.27s1.33-.77,2-1.1a4.71,4.71,0,0,0,1.87-1.7,4.08,4.08,0,0,0,.28-.44l-.3.38.24-.3a3,3,0,0,0-2.13-5.16l-.58,0c-.73,0,.88.13.25.06a4.72,4.72,0,0,0-2.21,0,7.55,7.55,0,0,0-1.2.53c-.7.37-1.39.78-2.06,1.22a32.07,32.07,0,0,0-4.38,3.4,26.8,26.8,0,0,0-3.53,4.21,20.28,20.28,0,0,0-1.24,1.92,13.37,13.37,0,0,0-1.07,2.89,2.89,2.89,0,0,0,4.82,2.81Z"/><path class="cls-2" d="M173.05,100.1c1.62,1.16,3,2.31,4.49,3.55a26.21,26.21,0,0,1,2.29,2.18c.33.36.65.72,1,1.09.19.22.37.45.55.68-.22-.28.11.14.18.24a32.87,32.87,0,0,1,3.13,5.26c.1.23.21.45.31.67,0,0,.39.9.16.34.19.45.36.9.53,1.36a22.52,22.52,0,0,0,1.39,3.46,3.07,3.07,0,0,0,5.71-1.55,19.5,19.5,0,0,0-2.75-7.23,35.78,35.78,0,0,0-4.13-5.86,29.75,29.75,0,0,0-5.19-4.71,15,15,0,0,0-6.31-2.6,1.72,1.72,0,0,0-1.32,3.12Z"/><path class="cls-2" d="M124.42,38.52c-.2,2.34-.44,4.67-.44,7s.16,4.54-.06,6.77a3.11,3.11,0,0,0,1.59,2.77,3.46,3.46,0,0,0,1.63.44,3.26,3.26,0,0,0,3.21-3.21c.06-2.29-.28-4.64-.44-6.92-.18-2.51-.62-5-1-7.48a2.26,2.26,0,0,0-2.51-1.64,2.32,2.32,0,0,0-2,2.25Z"/><path class="cls-2" d="M73.78,102.47a44.16,44.16,0,0,0-3.19,10.29,33.59,33.59,0,0,0-.71,5.91c0,2.28.2,5.38,2.84,6.08a3.18,3.18,0,0,0,3.33-1.6,2.34,2.34,0,0,0,.37-1.17c.06-.47.08-.56,0-.28.09-.65.15-1.3.23-2,.2-1.73.17-3.48.31-5.22.15-2,.36-3.13.65-5.16,0,.23,0,.14,0-.25s.07-.48.11-.72.12-.72.19-1.07c.17-1,.38-1.89.6-2.83a2.64,2.64,0,0,0-1.52-3.11,2.6,2.6,0,0,0-3.29,1.08Z"/><path class="cls-2" d="M174.48,104.89c.34,1.51.59,3,1.07,4.52s.89,2.86,1.23,4.33c.16.7.3,1.41.42,2.12a16,16,0,0,1,.41,2.26c0-1,0,0,0,.22,0,.44,0,.87.09,1.31a5.89,5.89,0,0,0,1.49,3.88l-.94-1.6c.12.29.23.58.33.88a3.29,3.29,0,0,0,2.69,2.31,3.22,3.22,0,0,0,3.23-1.54l.28-.52c-.47.57-.36.41.34-.47a4.84,4.84,0,0,0,.57-1.86,11.46,11.46,0,0,0,0-3,22.31,22.31,0,0,0-1.28-5.54c-.67-1.75-1.44-3.48-2.28-5.16a29.42,29.42,0,0,0-2.76-4.16,2.68,2.68,0,0,0-4.89,2.06Z"/><path class="cls-2" d="M122.44,55.42A44.3,44.3,0,0,0,122.75,37c-.76-4.33-6-6.77-10-5.68s-7.27,5.88-5.68,10a69.07,69.07,0,0,0,7.89,15c1.87,2.69,6.64,2.7,7.48-1Z"/><path class="cls-2" d="M85.35,61.91c-1.8,2.57-.49,6.3.39,9a6.34,6.34,0,1,0,11.6-4.89c-1.28-2.51-2.94-6-6-6.58a5.58,5.58,0,0,0-6,2.44Z"/><ellipse class="cls-3" cx="127.87" cy="122.16" rx="54.14" ry="64.17"/><rect class="cls-3" x="67.09" y="105.32" width="12.46" height="28.2" rx="3.14"/><rect class="cls-3" x="175.7" y="105.32" width="12.46" height="28.2" rx="3.14"/><path class="cls-2" d="M181.65,120.85h0c-1.11,0-2.47,1.13-3.86,2.83a13.43,13.43,0,0,1-13.73,4.61c-10.36-2.65-23.38-3.76-36.19-3.76s-25.71,1.1-36,3.74a13.45,13.45,0,0,1-13.73-4.61c-1.38-1.69-2.74-2.81-3.84-2.81-3.94,0-3.2,8.26-3.2,12.2v11.83c0,15.06,14.23,75.25,56.78,75.25s57-60.19,57-75.25V124.05A3.19,3.19,0,0,0,181.65,120.85Z"/><ellipse class="cls-3" cx="127.85" cy="126.67" rx="12.87" ry="7.51"/><path class="cls-3" d="M143.91,139.41a3.57,3.57,0,0,1,3.28,5.54c-3,4.53-7.89,9.61-14.82,10.37s-12.75-3.16-16.68-6.94a3.57,3.57,0,0,1,2-6.12,32.71,32.71,0,0,0,6.45-1.66l.25-.11a5.44,5.44,0,0,1,2-.59,5.8,5.8,0,0,1,4.51,1.45,5.6,5.6,0,0,1,4.05-2.38,5.81,5.81,0,0,1,2.2.18s.08,0,.12,0A32.44,32.44,0,0,0,143.91,139.41Z"/><ellipse class="cls-2" cx="150.31" cy="101.39" rx="3.43" ry="11.44" transform="translate(15.21 222.3) rotate(-75.83)"/><ellipse class="cls-2" cx="106.34" cy="100.94" rx="11.44" ry="3.43" transform="translate(-21.48 29.11) rotate(-14.17)"/><circle class="cls-4" cx="112.44" cy="114.26" r="5.01"/><line class="cls-5" x1="112.44" y1="114.26" x2="100.16" y2="114.26"/><circle class="cls-4" cx="143.93" cy="114.26" r="5.01"/><line class="cls-5" x1="156.2" y1="114.26" x2="143.93" y2="114.26"/><path class="cls-2" d="M73.73,108.59c2.41,1.21,6.2-3.15,6.4-5.84.06-.87-.1-6.76.31-7.52a4.74,4.74,0,0,1,1.61-1.43A7.46,7.46,0,0,0,85,87a4.34,4.34,0,0,0,4.23-4.76,2.42,2.42,0,0,1,0-1.64,2.08,2.08,0,0,1,1.07-.7c2.33-.94,4.54-3.27,3.86-5.69a14.11,14.11,0,0,0,4.4-1.57,4.69,4.69,0,0,0,2.32-3.84,7.18,7.18,0,0,0,7.18-3.45c.32-.55.61-1.2,1.2-1.44a2.76,2.76,0,0,1,1.4,0,9.84,9.84,0,0,0,8.51-3.07,6.74,6.74,0,0,0,6.84.32,8.13,8.13,0,0,0,9.56-.45c.17,1.65,2,2.75,3.62,2.76a10.35,10.35,0,0,0,4.69-1.55,10.14,10.14,0,0,0,9.51,5,8,8,0,0,0,7,6.85,7.31,7.31,0,0,0,4.22,8.41,4.48,4.48,0,0,0,3.25,5.48,4.5,4.5,0,0,1,2.12.6,3.41,3.41,0,0,1,.83,2.32c.35,2.74,2,5.64,4.7,6.14-1.53.9.58,8,2.08,8.93s4.23,3.85,5.65,2.8c0,0-5.16-55.21-56.78-56.73C83.11,50.41,73.73,108.59,73.73,108.59Z"/></g></svg>