<svg xmlns="http://www.w3.org/2000/svg" viewBox="0 0 256 256"><defs><style>.cls-1{fill:#d3d6e5;}.cls-2{fill:#b95a8c;}.cls-3{fill:#c6b6d1;}.cls-4{fill:#d0abb3;}.cls-5{fill:#cc86ab;}.cls-6{fill:#21617a;}.cls-7,.cls-8{fill:none;stroke-linecap:round;}.cls-7{stroke:#21617a;stroke-linejoin:round;stroke-width:2.08px;}.cls-8{stroke:#d3d6e5;stroke-miterlimit:10;stroke-width:4.16px;}</style></defs><g id="Layer_6" data-name="Layer 6"><path class="cls-1" d="M215.41,252.67v33.21a39.93,39.93,0,0,1-39.81,39.81H78.69a39.92,39.92,0,0,1-39.81-39.81V252.67a39.93,39.93,0,0,1,39.81-39.81h18a6.6,6.6,0,0,0,6.47-5.3c.48-2.44.87-4.87,1.18-7.13,1-7.29,1.28-13,1.28-13H148.4s.27,5.81,1.31,13.15v.07c.32,2.21.71,4.57,1.17,6.94a6.59,6.59,0,0,0,6.45,5.3H175.6A39.93,39.93,0,0,1,215.41,252.67Z"/><path class="cls-2" d="M183.08,141.6c0,45.54-24.92,60.49-55.65,60.49s-55.66-15-55.66-60.49c0-18.44-1.1-42.36,5.81-54.32,10.15-17.57,31.56-19,49.85-19s39.91-3.3,50.07,14.18C184.46,94.4,183.08,123.08,183.08,141.6Z"/><rect class="cls-2" x="65.33" y="122.29" width="12.75" height="33.26" rx="3.06"/><rect class="cls-2" x="176.82" y="122.29" width="12.75" height="33.26" rx="3.06"/><path class="cls-3" d="M183.18,128.79S203.33,77.49,170,51.48C150.26,36,138.4,24.9,132.43,18.9a6.85,6.85,0,0,0-9.71,0c-6,6-17.83,17.12-37.61,32.58-33.29,26-13.41,77.31-13.41,77.31s-2-52.21,30.62-52.21c9.24,0,15.58,4.85,19.82,11.69a6.56,6.56,0,0,0,11,.2c3.83-5.56,10-10.87,19.47-11.11C183.19,76.59,183.18,128.79,183.18,128.79Z"/><path class="cls-3" d="M110.16,112.33c-8.08-.6-12.3.36-19.34,4.39a5.33,5.33,0,0,1-6.85-1h0c-1.57-2-.67-5.4,2.25-7.07,9-5.14,14.33-6.36,24.63-5.59,3.35.25,5.63,2.92,5.08,5.41h0A5.34,5.34,0,0,1,110.16,112.33Z"/><path class="cls-3" d="M162.5,121.71c-7.34-3.45-11.62-4.06-19.63-2.81a5.34,5.34,0,0,1-6.06-3.34h0c-.75-2.43,1.31-5.29,4.62-5.8,10.21-1.6,15.66-.82,25,3.57,3,1.43,4.21,4.75,2.81,6.87h0A5.33,5.33,0,0,1,162.5,121.71Z"/><circle class="cls-4" cx="146.88" cy="128.5" r="6.04"/><circle class="cls-4" cx="109.4" cy="128.5" r="6.04"/><path class="cls-5" d="M114.48,145.44l-.39.71s12.09,10.4,26.11,0h0a13.94,13.94,0,0,0-12.6-8h-.89A13.93,13.93,0,0,0,114.48,145.44Z"/><path class="cls-6" d="M135.66,161.18s3.32,11.21,11.22,7.28,0-12.91,0-12.91"/><path class="cls-7" d="M151.91,141.76a17,17,0,0,0,9.89,11.1"/><path class="cls-7" d="M155.5,148.38s-13.59,16.11-39.68,16.37"/><path class="cls-8" d="M128,20.15c5.4,4.42,2.82,9.42-.91,11.7-2.91,1.78-6,3.43-8.27,6-1.26,1.41-2,3.73-.71,5.09A4.93,4.93,0,0,0,121.42,44,95.4,95.4,0,0,1,131,45.18a10.31,10.31,0,0,1,4.15,1.39,3.83,3.83,0,0,1,1.8,3.75,5.33,5.33,0,0,1-2.26,2.9,40,40,0,0,1-9.16,5.29c-2.8,1.15-6.3,2.75-6.24,5.79.05,2.41,2.46,4,4.65,5s4.7,2.19,5.38,4.51c.87,3-1.29,8.25-1.29,14"/></g></svg>