<svg xmlns="http://www.w3.org/2000/svg" viewBox="0 0 256 256"><defs><style>.cls-1{fill:#d0abb3;}.cls-2{fill:#d3d6e5;}.cls-3{fill:#b95a8c;}.cls-4{fill:#c6b6d1;}.cls-5{fill:none;stroke:#21617a;stroke-linecap:round;stroke-linejoin:round;stroke-width:2.08px;}.cls-6{fill:#21617a;}</style></defs><g id="Layer_10" data-name="Layer 10"><path class="cls-1" d="M174.89,213.83H151.33a6.58,6.58,0,0,1-6.47-5.31,155,155,0,0,1-2.47-20.16H110.26a155,155,0,0,1-2.47,20.16,6.58,6.58,0,0,1-6.47,5.31H78a39.93,39.93,0,0,0-39.81,39.81v33.21A39.93,39.93,0,0,0,78,326.66h96.91a39.93,39.93,0,0,0,39.81-39.81V253.64A39.92,39.92,0,0,0,174.89,213.83Z"/><rect class="cls-2" x="74.81" y="88.96" width="100.96" height="112.92" rx="17.1"/><path class="cls-3" d="M39.72,99.45c-2.48-4-10-2.12-12.19,1.38a9.83,9.83,0,0,0,.95,11.44c-4.16,2.06-5.41,7.78-3.37,11.87s6.55,6.6,11.13,7.47c1.55,7.64,10,13.25,17.88,11.83-.62,4.54,1.15,11.45,5.22,13.75s6,2.65,10.69,2.65c8.34,0,9.54-12.33,5.7-16,4.56-2.4,6.1-9,3-13.07a14.82,14.82,0,0,0,3.6-17.51,13.55,13.55,0,0,0,10.73-11.52c6,3.14,18.12,2.27,23.21-2.08a20.08,20.08,0,0,0,21.53-2.18,12.71,12.71,0,0,0,14.51,2.34c.23,6.25,6.84,11.53,13.17,10.52-.46,3.54-.91,7.18-.09,10.66s3.19,6.84,6.69,7.87a7.82,7.82,0,0,0,1.21,10.6,8.33,8.33,0,0,0,10.91-.81c3.65.81,7.44,1.62,11.11.91s7.23-3.41,7.64-7c6.41,1.1,13.16-4.31,13.28-10.66,3-.83,6.14-1.93,8.36-4.12s3.29-5.75,1.74-8.43c4.64-1.57,4.57-8.67.92-11.88s-9-3.58-13.91-3.78A13.6,13.6,0,0,0,203.92,81c-1.48-.45-4.26-1.69-4.26-1.69a41,41,0,0,1-2.27-4.48c-2.83-7.67-12.5-12.18-20.41-9.52,3.47-6.09-.61-14.92-7.59-16.43-1.36-.29-3.94-1.23-3.94-1.23a32.48,32.48,0,0,1-1.94-3.11,13.39,13.39,0,0,0-23.95.24,37.49,37.49,0,0,0-14.09-6.76,13.55,13.55,0,0,0-7.36-.15c-2.35.78-4.38,2.93-4.24,5.35-4.22-1.28-8.72-2.22-13-1.31s-8.39,4.09-9,8.35C84.71,48,76.12,51.94,73.46,58.73a17.2,17.2,0,0,0-15.17,4,16.2,16.2,0,0,0-4.94,14.54c-5.17-.37-10.17,2.93-12.56,7.41s-2.45,9.9-1.07,14.78"/><rect class="cls-2" x="171.88" y="130.57" width="11.4" height="24.87" rx="2.74"/><rect class="cls-2" x="66.68" y="130.57" width="11.4" height="24.87" rx="2.74"/><path class="cls-4" d="M127.9,134.77a2.77,2.77,0,0,0-5.23,0c-3.06,8.81-6.62,23.16,2.61,23.16S131,143.58,127.9,134.77Z"/><path class="cls-5" d="M94.12,138a8.16,8.16,0,0,1,16.31,0"/><path class="cls-5" d="M138.16,138a8.16,8.16,0,0,1,16.31,0"/><path class="cls-6" d="M112.93,171.77s14.36-11.47,18.18-3.83c0,0,1.39-8.55,20.13-3h0s-5.36,14.37-19.16,14.83C119.16,180.18,112.93,171.77,112.93,171.77Z"/><path class="cls-3" d="M115.44,121.29c-1.14,2.44-1.88,2.44-10.73,2.54s-16,4.85-18,3,4.68-12.63,17.86-12.77S116.58,118.85,115.44,121.29Z"/><path class="cls-3" d="M135.13,121.29c1.14,2.44,1.88,2.44,10.73,2.54s16,4.85,18,3-4.68-12.63-17.86-12.77S134,118.85,135.13,121.29Z"/></g></svg>