<svg id="Layer_3" data-name="Layer 3" xmlns="http://www.w3.org/2000/svg" viewBox="0 0 256 256"><defs><style>.cls-1{fill:#b95a8c;}.cls-2,.cls-5{fill:none;}.cls-2,.cls-5,.cls-8{stroke:#21617a;stroke-linecap:round;stroke-width:1.98px;}.cls-2{stroke-miterlimit:10;}.cls-3{fill:#c6b6d1;}.cls-4{fill:#21617a;}.cls-5,.cls-8{stroke-linejoin:round;}.cls-6{fill:#497e92;}.cls-7{fill:#d3d6e5;}.cls-8{fill:#fff;}</style></defs><path class="cls-1" d="M182.25,200.4H155.81a7.39,7.39,0,0,1-7.26-6,175.32,175.32,0,0,1-2.77-22.63H109.72A174.25,174.25,0,0,1,107,194.45a7.39,7.39,0,0,1-7.26,6H73.5a44.8,44.8,0,0,0-44.67,44.67v37.27A44.8,44.8,0,0,0,73.5,327H182.25a44.8,44.8,0,0,0,44.67-44.67V245.07A44.8,44.8,0,0,0,182.25,200.4Z"/><path class="cls-2" d="M150.59,195.91s10.42-1.22,2.69,19.82c-3.53,9.59-13.63,16-24.38,15.8-10.74.18-23.15-6.21-26.68-15.8-7.73-21,2.69-19.82,2.69-19.82"/><path class="cls-3" d="M86,139.92h0c-2.33.31-4.6-2.24-5.06-5.67l-2.35-17.69c-.46-3.43,1.07-6.49,3.39-6.8h0c2.32-.31,4.6,2.24,5,5.67l2.36,17.69C89.85,136.55,88.32,139.61,86,139.92Z"/><path class="cls-3" d="M168.74,139.92h0c2.33.31,4.6-2.24,5.06-5.67l2.35-17.69c.46-3.43-1.07-6.49-3.39-6.8h0c-2.32-.31-4.6,2.24-5.06,5.67l-2.35,17.69C164.89,136.55,166.42,139.61,168.74,139.92Z"/><path class="cls-3" d="M120.45,56.55h14c25.79,0,38.36,35.62,37.7,60.89-.63,25-23.07,68.66-44.69,68.66-21,0-44-43.66-44.69-68.66C82.11,92.17,94.67,56.55,120.45,56.55Z"/><path class="cls-4" d="M172.23,51.15c38.4,0-1,74.45-1,74.45s-7.58-54.95-43.84-54.95-43.79,55.1-43.79,55.1-39.41-74.6-1-74.6h0a76.34,76.34,0,0,1,89.6,0Z"/><path class="cls-5" d="M98.51,121.78s9.32-6.8,18.86.79"/><line class="cls-5" x1="100.24" y1="120.77" x2="96.59" y2="116.17"/><line class="cls-5" x1="102.92" y1="119.7" x2="100.9" y2="114.31"/><path class="cls-5" d="M158.18,121.78s-9.32-6.8-18.86.79"/><line class="cls-5" x1="156.45" y1="120.77" x2="160.1" y2="116.17"/><line class="cls-5" x1="153.77" y1="119.7" x2="155.79" y2="114.31"/><path class="cls-6" d="M149,102.86H105.87c-10.56,0-9.28-4.67-9.28-15.23h0c0-10.56,12.61-23.17,23.17-23.17H135.1c10.56,0,23.17,12.61,23.17,23.17h0C158.27,98.19,159.55,102.86,149,102.86Z"/><path class="cls-6" d="M68.9,36.43c-3.94-1.78-9.26-.66-11.85,2.5a7.77,7.77,0,0,0,1,10.71,7.22,7.22,0,0,0-2.22,9.06c1.61,3,5.64,4.84,9.34,4.25a9.73,9.73,0,0,0,7.94,5.73,10.45,10.45,0,0,0,9.33-3.76,9.54,9.54,0,0,0,9.17-1A7,7,0,0,0,94.14,56c2.91-1.33,5.37-3.67,6-6.51A6.26,6.26,0,0,0,96,42.42a7.24,7.24,0,0,0-.44-10.28,9.9,9.9,0,0,0-11.63-.63,11.51,11.51,0,0,0-11.26-3.36C68.66,29.3,67.41,33,68.9,36.43Z"/><path class="cls-6" d="M170.74,60.12c1.62,4,6.24,6.87,10.3,6.37a7.76,7.76,0,0,0,6.66-8.44,7.24,7.24,0,0,0,7.87-5c.91-3.28-.74-7.39-3.83-9.53A9.74,9.74,0,0,0,190,33.87a10.5,10.5,0,0,0-9.35-3.72,9.52,9.52,0,0,0-7.34-5.58A7,7,0,0,0,166,28.5c-3-1.05-6.42-1.05-8.82.59a6.24,6.24,0,0,0-1.93,8,7.25,7.25,0,0,0-6.79,7.73,9.94,9.94,0,0,0,8,8.5,11.57,11.57,0,0,0,5.82,10.21C166,65.44,169.41,63.66,170.74,60.12Z"/><ellipse class="cls-7" cx="128.21" cy="137.08" rx="7.86" ry="6"/><path class="cls-8" d="M114.25,152.12h27.93s-.46,14.35-14,14.35S114.25,152.12,114.25,152.12Z"/></svg>