<svg xmlns="http://www.w3.org/2000/svg" viewBox="0 0 256 256"><defs><style>.cls-1{fill:#d0abb3;}.cls-2{fill:#d3d6e5;}.cls-3{fill:#21617a;}.cls-4{fill:#b95a8c;}.cls-5{fill:none;stroke:#b95a8c;stroke-linecap:round;stroke-miterlimit:10;stroke-width:2.08px;}.cls-6{fill:#497e92;}.cls-7{fill:#d5b3ba;}</style></defs><g id="Layer_13" data-name="Layer 13"><path class="cls-1" d="M56.21,108.6c-9.32,2.62-15.27,14.53-12.12,24.25-6.53,6.78-6.66,19.32-.26,26.25-3.29,7.83,2.37,18.25,10.37,19.09-.68,8.65,7.44,16.79,15.48,15.52,2.45,5.13,8.49,8,13.68,6.41A11,11,0,0,0,90,207.57c3.1,1.31,6.51,1.46,9.84,1.45a12.31,12.31,0,0,1,4,.39,19.27,19.27,0,0,1,4,2.36c5.41,3.39,12.14,3.27,18.31,2.08,2.25-.44,4.48-1,6.75-1.31,2.58-.35,5.2-.36,7.79-.58,9.39-.79,18.39-4.23,27.25-7.63,3.22-1.24,6.5-2.51,9.16-4.8s4.61-5.84,4.23-9.47c5.61,1.49,12-1.57,14.69-7a25.31,25.31,0,0,1,1.8-3.61c1.46-2,3.9-3,5.61-4.76a9.11,9.11,0,0,0,.69-11.05c-.6-.83-1.39-1.66-1.39-2.7a4.44,4.44,0,0,1,1.38-2.58,14.36,14.36,0,0,0,.1-17.17,13,13,0,0,1-2-2.74c-.76-1.73-.39-3.75-.5-5.66-.39-6.39-6.13-10.79-11.62-13.36a9.24,9.24,0,0,1-3.81-2.57,11.63,11.63,0,0,1-1.32-3c-3.32-9.35-11.55-16.5-20.8-18.07"/><path class="cls-2" d="M215.69,251.92v33.2a39.93,39.93,0,0,1-39.8,39.82H79a39.93,39.93,0,0,1-39.8-39.82v-33.2A39.92,39.92,0,0,1,79,212.1H97a6.58,6.58,0,0,0,6.48-5.31c.24-1.24.46-2.46.67-3.68a155.14,155.14,0,0,0,1.78-16.48h42.75A159,159,0,0,0,150.47,203c.22,1.28.45,2.55.69,3.84a6.57,6.57,0,0,0,6.48,5.31h18.25A39.92,39.92,0,0,1,215.69,251.92Z"/><ellipse class="cls-3" cx="64.16" cy="130.32" rx="9.79" ry="16.12"/><ellipse class="cls-3" cx="189.83" cy="130.32" rx="9.79" ry="16.12"/><path class="cls-3" d="M188,144.55A41.54,41.54,0,0,0,183.31,125a53.8,53.8,0,0,1-5.06-15.69c-4.71-26.22-25.81-46-51.14-46S80.69,83.13,76,109.35A53.52,53.52,0,0,1,70.91,125a41.65,41.65,0,0,0-4.68,19.51c0,14.22,6.64,26.41,16.13,31.74a41.35,41.35,0,0,1,10.07,7.53c8,8.52,20.56,14,34.68,14s26.69-5.5,34.69-14a41.16,41.16,0,0,1,10.07-7.53C181.36,171,188,158.77,188,144.55Z"/><path class="cls-4" d="M109.63,161.25s15.38-8.24,16.9,3.36c0,0,1.33-10.78,18.88-2.24h0s-6.18,12.08-19.1,12.08S109.63,161.25,109.63,161.25Z"/><polygon class="cls-4" points="86.81 127.36 81.2 119.84 88.33 125.94 86.81 127.36"/><path class="cls-5" d="M109.63,126.65a16.34,16.34,0,0,0-12.11-4.29c-7.6.43-10,4.29-10,4.29"/><polygon class="cls-4" points="90.18 124.37 87.97 118.1 92.01 123.38 90.18 124.37"/><polygon class="cls-4" points="163.47 125.94 170.6 119.84 164.99 127.36 163.47 125.94"/><path class="cls-5" d="M142.17,126.65a16.32,16.32,0,0,1,12.11-4.29c7.6.43,9.95,4.29,9.95,4.29"/><polygon class="cls-4" points="159.79 123.38 163.83 118.1 161.62 124.37 159.79 123.38"/><path class="cls-6" d="M136.11,148.13c0,2.08-4.26,3.76-9.54,3.76s-9.53-1.68-9.53-3.76c0-1,1.06-2,2.76-2.65a4.13,4.13,0,0,0,2.53-3.88s1.9-17.6,4.25-17.6h0c2.35,0,4.25,17.6,4.25,17.6a4.14,4.14,0,0,0,2.52,3.88C135.06,146.17,136.11,147.1,136.11,148.13Z"/><path class="cls-1" d="M184.56,131c-3.26-2.21-4.93-7.46-4.11-10.74-5.59-.26-9-7.64-8.36-13.4a4.34,4.34,0,0,0,0-2.06,4,4,0,0,0-1.73-1.65,15.89,15.89,0,0,1-7-12.27c-6.72,1.66-14.3-3.12-16-10.07a18.16,18.16,0,0,1-16.25-.38c-1-.52-2-1.16-3.11-.87A4.54,4.54,0,0,0,126.14,81a16.53,16.53,0,0,1-15.59,4.48c-3.56,4.34-9.77,5.24-15.2,4.38a3.34,3.34,0,0,0-2.78.34,3.6,3.6,0,0,0-.89,2.14c-.84,4.25-3.53,8.83-7.7,9A11.07,11.07,0,0,1,79.4,113a7,7,0,0,0-2.29,1.77c-.71,1.06-.59,2.47-.7,3.76-.24,2.66-4.47,9.29-6.6,10.78a9.28,9.28,0,0,1-8.2-4.47,10,10,0,0,1-.27-9.59,8.31,8.31,0,0,1-7.55-4.48,8.94,8.94,0,0,1,.63-9c-3.92-2.33-4.79-8.72-1.64-12.08.91-1,2.41-3.13,2.41-3.13a22.83,22.83,0,0,0-.35-2.73,13.87,13.87,0,0,1,4.68-13.8,13.54,13.54,0,0,1,.56-11,8.85,8.85,0,0,1,7.24-5.23,6.05,6.05,0,0,1,.14-6.16c3.71-6,10.23-10,17.08-10.06,2.42-3.93,6-7.32,10.32-8.53s9.5.15,12.09,4c3.4-2.75,7.43-5,11.74-5.07s8.88,2.5,10.13,6.78c4.81-2.45,10.34-3.76,15.57-2.58s10.05,5.15,11.39,10.52c10.38,1.06,18.94,11.69,18.09,22.46,9,2.11,15.9,11.43,15.55,21,7,5.48,8.77,16.94,3.76,24.42,3.17,3.07,3.53,8.49,1.52,12.48S188.73,129.7,184.56,131Z"/><rect class="cls-4" x="146.11" y="58.74" width="29.96" height="8.53" rx="2.05" transform="translate(76.44 -87.84) rotate(39.34)"/><path class="cls-7" d="M156.94,28.27a8.28,8.28,0,0,0-6.73,12.4,6.89,6.89,0,0,0,1,12,5.1,5.1,0,0,1,1.72.92,4.8,4.8,0,0,1,.85,1.67,9.05,9.05,0,0,0,9.58,5.42,2.18,2.18,0,0,1,1.36,0c.68.34.74,1.25.83,2,.52,4.68,6.05,8.07,10.46,6.39a4.83,4.83,0,0,0,4.51,2.58,13.45,13.45,0,0,0,5.26-1.43c1.63-.71,3.38-1.58,4.07-3.21a6,6,0,0,1,.81-1.83,4.22,4.22,0,0,1,1.31-.78,7.16,7.16,0,0,0-.55-13.11,6.73,6.73,0,0,0-6.05-10.71A10.74,10.74,0,0,0,179,31.93c-2.19-.91-5.25-.75-6.31,1.37-1.65-3-3.59-6.15-6.67-7.69s-7.58-.76-8.89,2.43Z"/><path class="cls-7" d="M139.89,105.66a6.73,6.73,0,0,0-.18,5.37,3.58,3.58,0,0,0,6.46.85c.83-1.2.91-2.1,1.76-3.38h-6.69l2,3.21c1.88,3,6,2.17,7.11-.93.16-.44.18-.5.07-.17.09-.18.19-.36.29-.53.24-.4.5-.78.74-1.18l-6,.78c1.57,1.36,3.12,3.08,5.41,2.75a4.49,4.49,0,0,0,2.43-1.25c.18-.18.33-.37.5-.56.77-.85,0,.45-1,.32l-1.61-.43a9.42,9.42,0,0,0,4.35,1.07,24.57,24.57,0,0,1,3.93-.09,13.1,13.1,0,0,1,6.13,2.52,3.15,3.15,0,0,0,4.27-1.12,3.19,3.19,0,0,0-1.12-4.27,18.5,18.5,0,0,0-10.5-3.44c-.91,0-1.81.17-2.71.15s-1-.41-1.89-.66a4.31,4.31,0,0,0-3.28.37,6.25,6.25,0,0,0-1,.8l-.37.36c-.61.55-.14.38,1.41-.5l1.71.46q1.07,1.23.57.54l-.4-.56-.81-1.11c-1.42-1.94-4.17-2.7-6-.78a12,12,0,0,0-2.57,4.46l7.11-.93c-.68-1.06-1.35-2.13-2-3.19-1.49-2.32-5.28-2.7-6.69,0-.82,1.58-1.85,3.68-1.65,5.5l6-2.5c-.75-.71-.15-.21-.13-.16-.16-.33-.25-.75-.38-1.09a2.9,2.9,0,0,0-2.37-2,2.85,2.85,0,0,0-2.85,1.36Z"/><path class="cls-7" d="M108,106.34c-.25.64-.29,1-.51,1.25l6,2.5c.19-1.82-.84-3.92-1.66-5.5-1.4-2.7-5.19-2.32-6.69,0l-2,3.19,7.11.93a12,12,0,0,0-2.58-4.46c-1.86-1.92-4.61-1.16-6,.78l-.81,1.11-.27.37c-.47.64-.33.52.44-.35l1.71-.46c1-.08,2.17,1.18,1.13.23a5.87,5.87,0,0,0-1-.82,4.22,4.22,0,0,0-3.38-.44c-.47.15-1,.59-1.44.72.21-.06-2.61,0-.44-.06-.9,0-1.82-.16-2.71-.15a18.45,18.45,0,0,0-10.5,3.44,3.21,3.21,0,0,0-1.12,4.27A3.16,3.16,0,0,0,87.52,114a13.1,13.1,0,0,1,6.13-2.52,20.91,20.91,0,0,1,3.71.07,9.16,9.16,0,0,0,4.56-1l-1.61.43c-.86.11-1.73-1.19-.94-.32.17.19.32.38.5.56a4.36,4.36,0,0,0,2.43,1.25c2.27.33,3.84-1.39,5.4-2.75l-6-.78c.24.4.5.78.74,1.18.1.17.19.35.28.53-.11-.33-.08-.27.07.17a4,4,0,0,0,7.12.93c.67-1.07,1.34-2.14,2-3.21H105.2c.85,1.27.94,2.19,1.76,3.38a3.58,3.58,0,0,0,6.46-.85,6.61,6.61,0,0,0-.18-5.37,2.83,2.83,0,0,0-2.84-1.36,2.94,2.94,0,0,0-2.37,2Z"/></g></svg>