<svg xmlns="http://www.w3.org/2000/svg" viewBox="0 0 256 256"><defs><style>.cls-1{fill:#d3d6e5;}.cls-2{fill:#497e92;}.cls-3{fill:#21617a;}.cls-4{fill:#b95a8c;}.cls-5{fill:#c679a2;}.cls-6{fill:none;stroke:#d0abb3;stroke-linecap:round;stroke-linejoin:round;stroke-width:1.98px;}.cls-7{fill:#d0abb3;}</style></defs><g id="Layer_13" data-name="Layer 13"><path class="cls-1" d="M226.1,245.53v37.25a44.82,44.82,0,0,1-44.67,44.69H72.68A44.82,44.82,0,0,1,28,282.78V245.53a44.81,44.81,0,0,1,44.67-44.69H92.92a7.37,7.37,0,0,0,4.31-1.37c2.56,5.94,14.94,10.44,29.82,10.44s27.09-4.44,29.75-10.32a7.41,7.41,0,0,0,4.15,1.25h20.48A44.82,44.82,0,0,1,226.1,245.53Z"/><path class="cls-2" d="M156.8,199.59c-2.66,5.88-15,10.32-29.75,10.32s-27.26-4.5-29.82-10.44a7.41,7.41,0,0,0,3-4.58c.28-1.39.52-2.76.76-4.13a176.86,176.86,0,0,0,2-18.49h48a177.18,177.18,0,0,0,2,18.31c.24,1.43.5,2.86.77,4.31A7.38,7.38,0,0,0,156.8,199.59Z"/><path class="cls-3" d="M94.23,57.07H159.9a13.34,13.34,0,0,1,13.34,13.34V168a14.34,14.34,0,0,1-14.34,14.34H95.23A14.34,14.34,0,0,1,80.89,168V70.41A13.34,13.34,0,0,1,94.23,57.07Z"/><rect class="cls-3" x="75.57" y="107.79" width="10.06" height="24.88" rx="2.54"/><rect class="cls-3" x="168.21" y="107.79" width="10.06" height="24.88" rx="2.54"/><path class="cls-4" d="M80.89,121.46s-19-40.31-6.18-58.21a10.12,10.12,0,0,1,11-3.88l.21.06a10.4,10.4,0,0,1,6.41,14.42c-2.42,5.18-5,12.6-4.15,19.55C89.69,105.77,80.89,121.46,80.89,121.46Z"/><path class="cls-4" d="M173.14,121.46s19-40.31,6.17-58.21a10.12,10.12,0,0,0-11-3.88l-.2.06c-6.12,1.8-21.63,7.41-15.92,10.26,7.22,3.61,14.5,16.76,13.65,23.71C164.34,105.77,173.14,121.46,173.14,121.46Z"/><path class="cls-5" d="M179.42,30.86a21.45,21.45,0,0,1-11.69,11.75,15.44,15.44,0,0,0-.39-9.15c-.1.44-.22.88-.35,1.29-2.06,6.45-8.69,10.36-15.43,9.65q-1.4-.15-2.88-.39c-34-5.39-55.64-2.33-61.55,4.38-6.85,7.78-.82,19.78,3.45,22.25,19,11,67.8,8.07,83.1-5.31S179.42,30.86,179.42,30.86Z"/><path class="cls-4" d="M113.6,141.94a4.37,4.37,0,0,1-4.22-5.61,18.55,18.55,0,0,1,35.36,0,4.37,4.37,0,0,1-4.22,5.61Z"/><rect class="cls-2" x="117.45" y="116.89" width="19.2" height="15.23" rx="3.07"/><rect class="cls-2" x="113.5" y="122.71" width="7.91" height="7.91" rx="1.99"/><rect class="cls-2" x="132.7" y="122.71" width="7.91" height="7.91" rx="1.99"/><path class="cls-6" d="M101.13,140.28s6.11,10.87,25.93,10.87,25.34-10.87,25.34-10.87"/><path class="cls-7" d="M114.64,113.25a5.46,5.46,0,1,0-10.91,0c0,3,2.44.85,5.46.85S114.64,116.27,114.64,113.25Z"/><path class="cls-7" d="M150.4,113.25a5.46,5.46,0,0,0-10.92,0c0,3,2.44.85,5.46.85S150.4,116.27,150.4,113.25Z"/><path class="cls-4" d="M94.62,108.72c4.06-5.23,17.25-5.66,23.57-4.09.83-2.5,1.14-4.89-.13-7.4,0,0-18-3.91-23.44,11.49"/><path class="cls-4" d="M95.1,109.21c2-2.12,5-3.14,7.77-3.73a37.58,37.58,0,0,1,10.26-.59,26.77,26.77,0,0,1,4.79.72,1,1,0,0,0,1.24-.71,10.64,10.64,0,0,0,.22-7.17c-.22-.58-.43-1.3-1.09-1.49-.11,0-.23,0-.34-.06a27.24,27.24,0,0,0-4.13-.4c-4.83-.12-9.94.92-13.88,3.85a16.67,16.67,0,0,0-3.65,3.66A15.46,15.46,0,0,0,95,105.65a10,10,0,0,0-1,2.9.67.67,0,0,0,1.21.51,33.8,33.8,0,0,1,2.11-3.71,30.3,30.3,0,0,1,2.45-2.86,15.83,15.83,0,0,1,5.53-3.41,23.8,23.8,0,0,1,10.51-1.16l.92.1c.23,0-.23,0,0,0l.19,0,.31,0,.6.1-.61-.46c1.06,2.17.74,4.4,0,6.63l1.24-.71a32.64,32.64,0,0,0-10-.73,31.24,31.24,0,0,0-10.47,2.28A9,9,0,0,0,94,108.37a.69.69,0,0,0,1.08.84Z"/><path class="cls-4" d="M159.07,108.72c-4.06-5.23-17.26-5.66-23.57-4.09-.83-2.5-1.14-4.89.12-7.4,0,0,18-3.91,23.45,11.49"/><path class="cls-4" d="M159.67,108.37c-1.78-2.72-5.2-3.9-8.22-4.59a39.52,39.52,0,0,0-10.9-.85,29.87,29.87,0,0,0-5.32.73l1.24.71c-.71-2.23-1-4.46,0-6.63l-.61.46.48-.08c.18,0,.36-.06.55-.09s-.18,0,.11,0l.41,0a27.68,27.68,0,0,1,4.46-.14,18.76,18.76,0,0,1,11.35,4,18.56,18.56,0,0,1,2.74,3,17.41,17.41,0,0,1,1.28,1.89c.42.76.77,1.55,1.23,2.3a.67.67,0,0,0,1.21-.51,13.55,13.55,0,0,0-2-4.78,14.46,14.46,0,0,0-3-3.38,19.26,19.26,0,0,0-7.23-3.73A27.35,27.35,0,0,0,136,96.13c-.57.09-1,.12-1.34.7-1.38,2.47-1,5.5-.16,8.07a1,1,0,0,0,1.24.71,33.84,33.84,0,0,1,9.2-.78,26.53,26.53,0,0,1,9.77,1.84,11.54,11.54,0,0,1,3.84,2.54c.53.56,1.52-.17,1.09-.84Z"/></g></svg>