<svg xmlns="http://www.w3.org/2000/svg" viewBox="0 0 256 256"><defs><style>.cls-1{fill:#b95a8c;}.cls-2{fill:#d0abb3;}.cls-3{fill:#21617a;}.cls-4{fill:#c6b6d1;}.cls-5{fill:#c679a2;}.cls-6{fill:#dadce9;}.cls-7{fill:#d3d6e5;}</style></defs><g id="Layer_10" data-name="Layer 10"><path class="cls-1" d="M88.38,194h0c21.73,6.91,43.07,19.79,65.19,11.17L163.44,194l13.23-59.72-96.3,7.4Z"/><path class="cls-2" d="M181.07,202.91H154.63a7.39,7.39,0,0,1-7.26-5.95,174.25,174.25,0,0,1-2.76-22.63H108.55A175.32,175.32,0,0,1,105.78,197a7.39,7.39,0,0,1-7.26,5.95H72.33a44.82,44.82,0,0,0-44.68,44.68v37.26a44.81,44.81,0,0,0,44.68,44.67H181.07a44.81,44.81,0,0,0,44.68-44.67V247.59A44.82,44.82,0,0,0,181.07,202.91Z"/><rect class="cls-3" x="71.61" y="200.13" width="14.1" height="77.68" rx="1.6"/><rect class="cls-3" x="167.64" y="200.13" width="14.1" height="77.68" rx="1.6"/><path class="cls-4" d="M171.91,112c0,31.26-10.11,81.29-45.21,81.29-32.75,0-45.21-50-45.21-81.29S101.73,68.1,126.7,68.1,171.91,80.71,171.91,112Z"/><path class="cls-3" d="M104.28,130.72a2.19,2.19,0,0,1-2.12-2.83,8.44,8.44,0,0,1,15.9,0,2.18,2.18,0,0,1-2.12,2.83h0a10.38,10.38,0,0,0-11.66,0Z"/><path class="cls-3" d="M138.3,130.72a2.22,2.22,0,0,1-2-3.07,8.44,8.44,0,0,1,15.81.24,2.19,2.19,0,0,1-2.12,2.83h0a10.33,10.33,0,0,0-11.63,0Z"/><path class="cls-5" d="M115.49,118.29l-19.5,2c-1.74.18-3.35-.73-3.59-2h0c-.24-1.3,1-2.51,2.72-2.69l19.5-2c1.73-.18,3.34.74,3.58,2h0C118.44,116.9,117.22,118.11,115.49,118.29Z"/><path class="cls-5" d="M137.91,118.29l19.51,2c1.73.18,3.34-.73,3.58-2h0c.24-1.3-1-2.51-2.71-2.69l-19.5-2c-1.74-.18-3.35.74-3.59,2h0C135,116.9,136.18,118.11,137.91,118.29Z"/><path class="cls-6" d="M106.82,85.17s26.06,3.34,38.57,25c12.06,20.85,5.47,80.37,6.79,98C152.7,215,163.44,194,163.44,194s26.88-44.74,19.12-91.57S114,59.15,114,59.15"/><path class="cls-5" d="M135.6,76.7s-48.34,2.93-48.34,44.87c0,40.18,1.12,72.46,1.12,72.46s-9.39-8.54-15-26.68c-8-25.89-17.2-108.2,40.66-108.2Z"/><rect class="cls-4" x="80.37" y="122.83" width="10.68" height="25.84" rx="2.69"/><ellipse class="cls-7" cx="126.7" cy="142.31" rx="6.89" ry="3.88"/><path class="cls-3" d="M139.46,157.54a1,1,0,0,1,1,1.52c-2,3.14-6.5,8.71-12.93,8.72s-11.06-5.74-13-8.85a.91.91,0,0,1,.9-1.39A19.81,19.81,0,0,0,123,157l.18,0a3.67,3.67,0,0,1,1.4-.26,4,4,0,0,1,3,1.33,3.88,3.88,0,0,1,3-1.34,4,4,0,0,1,1.5.29l.08,0A19.94,19.94,0,0,0,139.46,157.54Z"/></g></svg>