<svg xmlns="http://www.w3.org/2000/svg" viewBox="0 0 256 256"><defs><style>.cls-1{fill:#c6b6d1;}.cls-2{fill:#d3d6e5;}.cls-3{fill:#21617a;}.cls-4{fill:#d0abb3;}.cls-5{fill:#b95a8c;}.cls-6{fill:none;stroke:#b95a8c;stroke-linecap:round;stroke-miterlimit:10;stroke-width:2.08px;}.cls-7{fill:#497e92;}</style></defs><g id="Layer_12" data-name="Layer 12"><path class="cls-1" d="M215.41,252.67v33.21a39.93,39.93,0,0,1-39.81,39.81H78.69a39.92,39.92,0,0,1-39.81-39.81V252.67a39.93,39.93,0,0,1,39.81-39.81H102a6.59,6.59,0,0,0,6.47-5.3A154.18,154.18,0,0,0,111,187.4h32.13a156.31,156.31,0,0,0,2.48,20.16,6.59,6.59,0,0,0,6.47,5.3H175.6A39.93,39.93,0,0,1,215.41,252.67Z"/><path class="cls-2" d="M108.58,220.51l-9.69-7.12-3.56,13.28L85,214.37l-4.85,12.3L74.3,211.46l-4.87,9.38C60,203.36,57.8,177,57.8,177l-5.18,8a118.54,118.54,0,0,1,1-41.42l-6.15,4.2a139.93,139.93,0,0,1,10-28.48,29.89,29.89,0,0,1-10.5-.27c5.49-4.33,11.83-7.72,16.58-13,.79-.87,1.68-1.74,2.54-2.68v0c3.49-5.68,6-9,6-9l38.43,91.09C107.07,199.82,108.58,220.51,108.58,220.51Z"/><path class="cls-2" d="M198.8,143.51a118.27,118.27,0,0,1,.95,41.42l-5.16-8s-2.24,26.38-11.65,43.86l-4.85-9.38-5.82,15.21-4.87-12.3-10.34,12.3-3.56-13.28-9.71,7.12s3.74-16,.37-30.46l36.18-95.73s2.48,3.25,5.95,8.89a52.49,52.49,0,0,0,8.22,7.07c1.19.81,2.41,1.58,3.62,2.37l5.74,3.62a18.68,18.68,0,0,1-9.19,2.35,139.35,139.35,0,0,1,10.25,29.09Z"/><path class="cls-3" d="M186.44,124.07a64.87,64.87,0,0,1-23.35,50.39,98.8,98.8,0,0,0-12.27,12.19c-4.85,5.63-13.8,9.41-24,9.41s-19.21-3.78-24-9.41a99.58,99.58,0,0,0-12.28-12.19A64.86,64.86,0,0,1,67.1,124.07c0-35,26.71-63.49,59.67-63.49S186.44,89,186.44,124.07Z"/><path class="cls-2" d="M68.88,103.79l-4.29,7.69v43l4.74,14.9a124.6,124.6,0,0,1-.41-26.61c1.27,1.24,4.54,2.89,5,4.59-.21-8.49-1.84-17.09-.26-25.44l2.7,5.09a45.55,45.55,0,0,1,3.53-18L82.06,112A29.85,29.85,0,0,1,89.4,95.87H73.3c-.66,0-3,5.45-3.45,6.08"/><path class="cls-2" d="M183.05,169.41a124.6,124.6,0,0,0,.41-26.61c-1.27,1.24-4.55,2.89-5.05,4.59.21-8.49,1.84-17.09.26-25.44L176,127a45.91,45.91,0,0,0-3.53-18L170.32,112A29.93,29.93,0,0,0,163,95.87h18.19l6.63,15.61v43Z"/><path class="cls-4" d="M176.24,49.35C168.52,42.8,153.6,35,126.37,35,99.45,35,84.69,42.63,77,49.14a21.35,21.35,0,0,0-7.56,16.31V96.33a2.83,2.83,0,0,0,2.83,2.83H180.88a2.83,2.83,0,0,0,2.83-2.83V65.46A21.09,21.09,0,0,0,176.24,49.35ZM145.9,91.84H107.22V80.38A7.1,7.1,0,0,1,109.7,75c2.59-2.22,7.59-4.83,16.79-4.83s14.28,2.63,16.89,4.85a7.11,7.11,0,0,1,2.52,5.44Z"/><path class="cls-2" d="M133,34.05c0,2.94-2.77,3.37-6.2,3.37s-6.21-.43-6.21-3.37,2.78-5.32,6.21-5.32S133,31.11,133,34.05Z"/><path class="cls-2" d="M141.41,95.86s7,6.56,7,15c0,0-16-20.51-41.17-19,0,0-2.48-13.63,1.66-16.88,5.18-4.07,12.61-4.55,12.61-4.55a32.27,32.27,0,0,1,19.65,2.65,16.13,16.13,0,0,0,9.75,1.66,13.22,13.22,0,0,0,5.22-1.94,17.23,17.23,0,0,1-6.82,6.26c5.78,6,10.59,15.83,12,31.79C161.32,110.84,151.25,97.09,141.41,95.86Z"/><rect class="cls-2" x="88.02" y="111.16" width="24.71" height="4.79" rx="1.15" transform="translate(-20.14 21.65) rotate(-11.2)"/><rect class="cls-2" x="138.21" y="111.16" width="24.71" height="4.79" rx="1.15" transform="translate(27.17 -29.05) rotate(12.11)"/><circle class="cls-5" cx="106.6" cy="126.37" r="5.6"/><circle class="cls-5" cx="143.1" cy="126.37" r="5.6"/><path class="cls-6" d="M100.63,146.71s2.3,11.69,16.31,16.48a27.19,27.19,0,0,0,24-2.68"/><path class="cls-7" d="M123.66,127.22l-4.92,17.22a2.35,2.35,0,0,0,2.26,3h9.7a2.34,2.34,0,0,0,2.25-3l-4.78-17.23A2.34,2.34,0,0,0,123.66,127.22Z"/></g></svg>