<svg xmlns="http://www.w3.org/2000/svg" viewBox="0 0 256 256"><defs><style>.cls-1{fill:#d5b3ba;}.cls-2,.cls-7,.cls-8{fill:none;stroke-linecap:round;stroke-linejoin:round;stroke-width:1.98px;}.cls-2{stroke:#d0abb3;}.cls-3{fill:#c6b6d1;}.cls-4{fill:#21617a;}.cls-5{fill:#d3d6e5;}.cls-6{fill:#d0abb3;}.cls-7{stroke:#d4b3ba;}.cls-8{stroke:#b95a8c;}.cls-9{fill:#b95a8c;}</style></defs><g id="Layer_7" data-name="Layer 7"><path class="cls-1" d="M48.85,188.11c-1,3.32,1,6.89,4.15,9.19s7.28,3.53,11.41,4.35c.67,3.92,4.64,7.11,9.23,8.53s9.71,1.31,14.57.66a20.3,20.3,0,0,1,6.4-.27,22.25,22.25,0,0,1,5.57,2.39c10.22,5.06,23.54,3.24,34.69-.33a23.83,23.83,0,0,1,5.79-1.37,22.93,22.93,0,0,1,5,.44c8.29,1.39,17,2.88,25.09.76a24.5,24.5,0,0,1,3.7-.85c3.53-.35,6.87,1.46,10.43,1.55,6.1.14,10.55-4.67,12.65-9.28a29.62,29.62,0,0,0,2-18.93c5.84-5.73,8.76-13.34,7.94-20.73s-5.34-14.46-12.35-19.28a24.36,24.36,0,0,0-5.42-2.87,35,35,0,0,0-10.22-1.66c-26-1.31-51.92,5.26-77.87,3.47C89.38,143,77.34,140.32,65,140.25a17.68,17.68,0,0,0-4.72.44c-4.72,1.28-6.85,5.59-8.39,9.4"/><path class="cls-2" d="M71.57,170.82A14.37,14.37,0,0,0,70.16,178a7.08,7.08,0,0,0,4,5.83c2.29.93,5.36-.11,6.17-2.44a3,3,0,0,0-.19-2.57,2.06,2.06,0,0,0-2.3-.93,2.72,2.72,0,0,0-.82.48A8.26,8.26,0,0,0,75,188.62c1,1.71,2.8,3.11,4.75,2.88s3.47-2.68,2.35-4.3a1.76,1.76,0,0,0-1-.73c-1.11-.3-2.11.76-2.65,1.79A12.26,12.26,0,0,0,82.88,204"/><path class="cls-2" d="M164.74,179.13c2.09-.17,3.72,1.94,4.09,4a9.5,9.5,0,0,1-2.7,8,14.54,14.54,0,0,1-7.73,3.92,4.15,4.15,0,0,1-3.57-.54,2.71,2.71,0,0,1,.61-4.09,3.79,3.79,0,0,1,4.41.71,6.5,6.5,0,0,1,1.75,4.34,10.46,10.46,0,0,1-3.84,8.56,4.85,4.85,0,0,1-2.61,1.19,2.38,2.38,0,0,1-2.4-1.31c-.61-1.51,1.15-3.14,2.77-3s2.87,1.5,3.74,2.87a12.73,12.73,0,0,1,2.12,7.72,9.4,9.4,0,0,1-3.72,7"/><path class="cls-2" d="M182.32,185.41c2.21.15,3.87,2.13,4.75,4.16a8.65,8.65,0,0,1,.76,5,4.92,4.92,0,0,1-3.12,3.8,3.47,3.47,0,0,1-4.24-1.92,4.27,4.27,0,0,1,.38-3.16,3.58,3.58,0,0,1,2.51-2.15,4,4,0,0,1,3.19,1.51,12.23,12.23,0,0,1-.58,17.54"/><path class="cls-2" d="M151.22,170.53c1.9-.2,3.49,1.48,4.24,3.23a10.09,10.09,0,0,1-.77,9.26c-1.57,2.46-4.13,4.1-6.11,6.25a16.66,16.66,0,0,0-4.3,12.39"/><path class="cls-2" d="M99.11,168.85a18.51,18.51,0,0,0-5.49,10.75c-.29,2.12.07,4.75,2,5.62a4.86,4.86,0,0,0,3.91-.36c1.17-.53,2.4-1.47,2.37-2.75,0-1.46-1.89-2.36-3.25-1.84a4.21,4.21,0,0,0-2.38,3.42c-.56,3.76,1.94,7.2,3.12,10.81a16.13,16.13,0,0,1-2.25,14.2"/><path class="cls-2" d="M84.15,158.18a4.57,4.57,0,0,1,4.37,4.66c-.18,3-5.64,8.4-2.18,12.55"/><path class="cls-3" d="M152.89,198.84a48.63,48.63,0,0,1-23.83,24.28c-19.41-10.53-24.35-23.89-24.51-24.28a7.38,7.38,0,0,0,3.37-4.85,174.2,174.2,0,0,0,2.76-22.62h36.08A172.18,172.18,0,0,0,149.52,194,7.31,7.31,0,0,0,152.89,198.84Z"/><path class="cls-4" d="M227.88,244.62v37.26a44.8,44.8,0,0,1-44.67,44.67H74.46a44.81,44.81,0,0,1-44.67-44.67V244.62A44.81,44.81,0,0,1,74.46,200h26.2a7.32,7.32,0,0,0,3.89-1.11c.16.39,5.1,13.75,24.51,24.28a48.63,48.63,0,0,0,23.83-24.28,7.32,7.32,0,0,0,3.89,1.11h26.43A44.8,44.8,0,0,1,227.88,244.62Z"/><path class="cls-5" d="M178.68,76.14v69.7a21,21,0,0,1-8.23,16.66l-28.64,21.91a21,21,0,0,1-25.49,0L87.68,162.5a21,21,0,0,1-8.23-16.66V76.14"/><path class="cls-6" d="M135.81,66.75c.93-3.56-2.68-7.3-6.36-9s-9.47.06-9.54,3.71a14.15,14.15,0,0,0-15.34.81,6.56,6.56,0,0,1-2.42,1.51,6.92,6.92,0,0,1-3.05-.29c-7-1.53-15,1.72-18.14,7.39-4,.64-8.14,1.31-11.75,3S62.52,78.49,62,82c-6.13.24-11,6.2-9.31,11.34-3.91,2.38-8.17,5.21-8.88,9.32a13.33,13.33,0,0,1-.55,3.15,8.27,8.27,0,0,1-2.08,2.56,15.12,15.12,0,0,0-3.88,5.06,5.35,5.35,0,0,0,.95,5.8c-4.83,2.68-6.78,8.67-4.29,13.16a3.39,3.39,0,0,1,.71,2.16,3.79,3.79,0,0,1-1.4,1.79c-4,3.63-3.65,10.57,1.41,13-4.73,3.42-5,9.56-4.84,14.91l.19,7.25a8.1,8.1,0,0,0,.92,4.27,3.75,3.75,0,0,0,4.22,1.56,6.76,6.76,0,0,0,1.33,8,9.49,9.49,0,0,0,8.91,2.07A11.11,11.11,0,0,0,50,198.29c2,1.46,5,2.36,7.26,1.19a11.59,11.59,0,0,1,1.48-.78,7.66,7.66,0,0,1,2.4-.12c4.4,0,7.81-3.18,10.62-6.13a12.37,12.37,0,0,0,3.25-4.64A4,4,0,0,0,73.16,183a7.3,7.3,0,0,0,5.31-5.68,6.72,6.72,0,0,0-3.65-6.61A6.58,6.58,0,0,0,76.11,162c3.25,1.12,6.92-.59,9.36-2.77,2-1.82,3.71-4.1,4-6.64a6.15,6.15,0,0,0-3.81-6.34c1.69-3.89-1.46-8.77-6.14-9.54a8,8,0,0,0,.16-8.43c4.16-1.9,6.07-6.84,4.09-10.55,3.65-.73,4.81-4.69,5.27-7.93l1.07-7.51c3.78.31,7.6-2.11,8.44-5.33a18.63,18.63,0,0,0,11.64-5S129.89,89.57,135.81,66.75Z"/><path class="cls-6" d="M108.74,42.66A21,21,0,0,0,102.65,40a7.24,7.24,0,0,0-6.32,1.36,8.38,8.38,0,0,0-10.69,3.36,16.07,16.07,0,0,0-9.82-1.3c-3.26.78-6.23,3.39-6.61,6.67a13.52,13.52,0,0,0-10.4,2.74A13.11,13.11,0,0,0,54,62.26a11.7,11.7,0,0,0-9.24,12.57A19,19,0,0,0,40.25,79a6.32,6.32,0,0,0-1,5.78c.32.79.87,1.63.53,2.41a2.76,2.76,0,0,1-.79.88,9.63,9.63,0,0,0-3.47,6.85,7.17,7.17,0,0,0,3.66,6.53c-2.58,3.43-3.35,8.7-.3,11.73a8.88,8.88,0,0,0,6.68,2.21,24.6,24.6,0,0,0,7-1.71c2.23-.79,4.71-1.85,5.51-4a12.42,12.42,0,0,1,.61-1.81,5.62,5.62,0,0,1,1.92-1.76,28.91,28.91,0,0,0,11.09-14.8,16.44,16.44,0,0,0,15-9.22,3.24,3.24,0,0,1,1.13-1.59,3.34,3.34,0,0,1,1.63-.25,19.44,19.44,0,0,0,14.89-6.91A5.1,5.1,0,0,1,106,71.85a5.43,5.43,0,0,1,2.38-.34,11.79,11.79,0,0,0,8.19-3.15,7.59,7.59,0,0,0,1.8-8.19,18.13,18.13,0,0,0,3.87-4.46,2.68,2.68,0,0,0,.5-1.42,2.83,2.83,0,0,0-.79-1.59c-2.21-2.73-4.91-5.56-8.44-5.84.84-2.23-1.47-4.62-3.88-4.85s-4.68,1-6.78,2.15"/><path class="cls-6" d="M53.5,70.14c-4.18,1-8.39,2.35-11.79,5s-5.89,6.75-5.64,11A12.5,12.5,0,0,0,25.58,97.09a13.83,13.83,0,0,1-.55,4.18,12.7,12.7,0,0,1-2.14,3,15.2,15.2,0,0,0,.77,19.24,18.92,18.92,0,0,0-3.32,10.18c.05,3.63,1.87,7.37,5.11,9a14.89,14.89,0,0,0-2.93,10.86,10.74,10.74,0,0,0,6.88,8.55A11,11,0,0,0,43.08,175"/><path class="cls-6" d="M113.72,52.19c1.09-3.65,2.41-7.39,5.1-10.09s7.14-4,10.41-2c3.2-7.27,13.13-10.59,20.06-6.72a16.88,16.88,0,0,1,26.29,3.88A12.85,12.85,0,0,1,192.34,50c4.56.77,9.27,1.59,13.14,4.12s6.7,7.25,5.58,11.73c4.54,2,9.17,4.31,12.29,8.17s4.31,9.72,1.5,13.81c6.79.77,11.2,9.55,7.77,15.45a4.5,4.5,0,0,0-.93,2.31c0,1,.89,1.81,1.58,2.57a11.4,11.4,0,0,1,.54,14.12A14.61,14.61,0,0,1,231,145.65c4.51,6,3.1,15.62-2.95,20.09a7.22,7.22,0,0,0-2.36,2.2,6.31,6.31,0,0,0-.42,3c0,6.18-2.56,13.05-8.3,15.34-1.92.77-4,1-5.94,1.73s-3.32,1.92-5,2.81a16.25,16.25,0,0,1-17.82-2.19c-2.86,3.56-7,6.36-11.58,6.51s-9.35-2.95-10.1-7.46c-3.47.86-6.4-3.55-5.5-7s4.11-5.77,7.24-7.5c-2.39-2.43-2.4-6.47-.94-9.56s4.08-5.42,6.64-7.68a11.36,11.36,0,0,1-4.48-9.53,9.55,9.55,0,0,0-.06-3.29A20.63,20.63,0,0,0,168,140.5c-1-2-.43-4.41.13-6.59l4.63-18.15c-3.72-3.52-1.88-9.82-3.74-14.58-.62-1.57-1.64-3-2.2-4.55a8.62,8.62,0,0,1,.86-7.38,10.82,10.82,0,0,1-9.47-7.58A12.59,12.59,0,0,1,143,87.46a7.31,7.31,0,0,0-2.7-.77,7,7,0,0,0-2.66.93,14.46,14.46,0,0,1-15.51-2.38"/><path class="cls-7" d="M115.94,70.86c1.35-3.07,5.41-4.4,8.52-3.15a8.92,8.92,0,0,1,5.22,7.93,4.91,4.91,0,0,1-1.46,4.12c-1.18.95-3.32.67-3.78-.77a2.79,2.79,0,0,1,.33-2.14,5.75,5.75,0,0,1,8.46-1.55c2,1.77,2.47,4.73,2.28,7.41-.13,1.83-1.32,4.19-3.08,3.64-1.58-.5-1.47-2.89-.49-4.23,2.23-3.07,7-3.53,10.25-1.54s5,5.87,5.16,9.67a7.7,7.7,0,0,1-1.08,4.85,3.83,3.83,0,0,1-4.41,1.56c-1.87-.79-2.38-3.53-1.18-5.17a4.86,4.86,0,0,1,5.51-1.41,8,8,0,0,1,4.24,4.19,23.45,23.45,0,0,1,1.65,5.85"/><path class="cls-7" d="M140.22,65.33c2.16-4.33,6.64-7.62,11.47-7.62s9.61,3.76,10.06,8.57c.15,1.59-.3,3.44-1.71,4.2-2.06,1.11-4.72-1.2-4.58-3.54s2.19-4.18,4.38-5a10.19,10.19,0,0,1,10.52,2A8.83,8.83,0,0,1,172,74.24a3,3,0,0,1-1.27,1.32,2.31,2.31,0,0,1-3-1.61,3.81,3.81,0,0,1,1.1-3.5,7,7,0,0,1,6.85-1.68,11.22,11.22,0,0,1,5.87,4.31,16.42,16.42,0,0,1,3.21,10.72,6.57,6.57,0,0,1-1.29,3.94,3,3,0,0,1-3.78.82c-1.69-1.08-1.11-4,.66-5s4-.39,5.72.65a13.85,13.85,0,0,1,6.25,9.84,19.86,19.86,0,0,1-2.14,11.67"/><path class="cls-7" d="M206.57,88.37c2.14-3.2,7.16-3.52,10.25-1.23s4.33,6.48,4,10.31a6.48,6.48,0,0,1-2.1,4.61c-1.39,1-3.76.86-4.49-.72-.87-1.89,1.45-4,3.5-3.71s3.5,2.26,4.26,4.21a17.14,17.14,0,0,1,.19,10.92,8.71,8.71,0,0,1-2.93,4.82c-1.57,1.11-4,1.14-5.2-.36s0-4.32,1.89-4.08a3.65,3.65,0,0,1,2.14,1.39,14.6,14.6,0,0,1,1.6,16.6c-1.22,2.07-3.27,4-5.67,3.86s-4.47-3.13-3-5a3.33,3.33,0,0,1,3.92-.71,6.32,6.32,0,0,1,2.83,3.11,14.51,14.51,0,0,1,0,11.54,27.72,27.72,0,0,1-6.93,9.54"/><path class="cls-7" d="M86.38,56.2a17.47,17.47,0,0,0-17.83,4.28c-1.63,1.68-3,4-2.45,6.27s3.66,3.83,5.32,2.18c1.35-1.34.74-3.84-.8-5A7.6,7.6,0,0,0,65.11,63,20.68,20.68,0,0,0,54,68.14a10.14,10.14,0,0,0-3.22,4.72,5.09,5.09,0,0,0,1.47,5.27c1.52,1.19,4.12.89,5-.83s-.26-3.9-2-4.78a9,9,0,0,0-5.62-.42,31.86,31.86,0,0,0-15.16,7.07"/><path class="cls-7" d="M26.12,101.61c-2,2.91-4,5.93-4.62,9.39a9.57,9.57,0,0,0,2,8,6.51,6.51,0,0,0,7.76,1.56c2.47-1.42,3.34-5.23,1.38-7.31a2.5,2.5,0,0,0-3-.69,3.23,3.23,0,0,0-1.12,1.74,23.86,23.86,0,0,0-.11,15.19c.89,2.7,3,5.64,5.83,5.2a3.61,3.61,0,0,0,2.83-4.21c-.29-1.24-1.74-2.34-2.82-1.66a2.56,2.56,0,0,0-.92,1.45,11.52,11.52,0,0,0,5,13.07"/><path class="cls-7" d="M85.19,78.61c-3.1,1.3-6.28,2.7-8.72,5.23s-4,6.5-2.9,9.76,5.48,4.69,7.83,2a4,4,0,0,0,.72-4.36,3.06,3.06,0,0,0-3.71-1.07A8.65,8.65,0,0,0,75,93a28.36,28.36,0,0,0-5.73,11.1c-.52,2-.79,4.22.07,6s3.27,2.51,4.65,1a3.35,3.35,0,0,0-.53-4.77c-1.4-.93-3.37-.5-4.79.63a11.55,11.55,0,0,0-3.09,4.6,28.33,28.33,0,0,0-2,7.71c-.26,2.28-.19,4.74,1.06,6.45s4,2.1,5.37.27a2,2,0,0,0,.38-1.84c-.58-1.4-2.63-.26-3.44,1.11a12.64,12.64,0,0,0-1.64,8"/><path class="cls-7" d="M50.2,148.2a17,17,0,0,0-4.67,7,9.9,9.9,0,0,0,.81,8.19,7,7,0,0,0,7.28,3.22c2.76-.67,4.82-3.73,4-6.45a2.88,2.88,0,0,0-1.13-1.67,2.75,2.75,0,0,0-3.21.46,6.66,6.66,0,0,0-1.67,3,22.4,22.4,0,0,0-1,7.23,8.81,8.81,0,0,0,1.82,5.73c1.37,1.52,4,2.08,5.48.71s.67-4.57-1.38-4.53c-1.43,0-2.42,1.41-3,2.71a18.22,18.22,0,0,0,4.19,20.48"/><path class="cls-7" d="M177.5,126.38a7.23,7.23,0,0,1,7.14,3.44,10.89,10.89,0,0,1,1.1,8.13,7.6,7.6,0,0,1-2.15,4.11,4,4,0,0,1-4.36.73,2.7,2.7,0,0,1-.86-4c1.33-1.43,3.8-.51,5.12.93,2.3,2.54,3,6.21,2.71,9.62a10.76,10.76,0,0,1-1.86,5.78,5.38,5.38,0,0,1-5.39,2.16,2.26,2.26,0,0,1-1.4-.93c-.63-1.06.28-2.46,1.42-2.94,2.19-.92,4.83.44,6.06,2.47s1.38,4.54,1.32,6.92c-.1,3.76-1.22,8.25-4.8,9.41"/><path class="cls-7" d="M124.43,50.16a11.72,11.72,0,0,1,6.47-14.94,6.84,6.84,0,0,1,4.5-.26,4.88,4.88,0,0,1,3.11,3.43c.45,1.89-1.18,4.39-3,3.67-1.27-.51-1.57-2.18-1.46-3.55a13.5,13.5,0,0,1,5.68-9.89c2.49-1.73,5.86-2.55,8.6-1.23s4.16,5.23,2.25,7.6a2.55,2.55,0,0,1-1.3.92,2.41,2.41,0,0,1-2.59-1.37,5.33,5.33,0,0,1-.34-3.09A14.62,14.62,0,0,1,158.1,19.24"/><path class="cls-7" d="M196.88,150.25A11,11,0,0,1,203.79,165c-.74,1.79-2.17,3.5-4.09,3.76s-4-1.7-3.33-3.51a3,3,0,0,1,3.63-1.44,6.37,6.37,0,0,1,3.16,2.78,11.43,11.43,0,0,1,1.89,7.66,7.82,7.82,0,0,1-4.59,6.17,4.39,4.39,0,0,1-4.56-.54c-1.19-1.1-1.18-3.37.24-4.13s3,.17,4,1.32A8.18,8.18,0,0,1,199,188.3"/><path class="cls-7" d="M172.83,44.14c2.38-2.39,6.43-2.58,9.37-.93a12.11,12.11,0,0,1,5.54,8.1,8.57,8.57,0,0,1-.12,4.79,4.44,4.44,0,0,1-3.53,3,3,3,0,0,1-3.32-2.75,4,4,0,0,1,1.13-2.5,9.76,9.76,0,0,1,17.17,5.8c.08,1.51-.49,3.37-2,3.66A2.45,2.45,0,0,1,194.46,61a4.53,4.53,0,0,1,1.45-3.48c2.62-2.75,7-3.36,10.59-2.16a18.43,18.43,0,0,1,8.75,7"/><path class="cls-7" d="M56.62,90.67a11.22,11.22,0,0,0-6.95,4.68,9.29,9.29,0,0,0-2.06,6.29c.25,2.24,2,4.41,4.25,4.57s4.43-2.32,3.56-4.4a2.14,2.14,0,0,0-.86-1,3.14,3.14,0,0,0-2.93.35A17,17,0,0,0,43,112.87"/><path class="cls-7" d="M190,116c3-1.25,6.53,1.32,7.33,4.47a5.21,5.21,0,0,1-.71,4.53,3.16,3.16,0,0,1-4.21.75c-1.25-1-1-3.37.49-3.82s2.89,1.07,3.53,2.51a13.08,13.08,0,0,1,1,7.12"/><path class="cls-7" d="M219.76,152a10.31,10.31,0,0,1,4.2,18.43,6,6,0,0,1-4.42,1.32,3.33,3.33,0,0,1-2.86-3.23c.17-2.43,3.76-3.27,5.71-1.8s2.53,4.12,2.79,6.55a10.2,10.2,0,0,1-3.6,9.27"/><path class="cls-8" d="M100.78,126.88s7.81-8.5,18.65-2.91"/><circle class="cls-9" cx="115.07" cy="126.23" r="3.47"/><path class="cls-8" d="M156.88,126.34s-8.26-8-18.78-1.88"/><circle class="cls-9" cx="151.05" cy="126.32" r="3.47"/><path class="cls-6" d="M90.82,123.64c4.49-5.63,13.41-9.17,21.91-8.7,2.81.15,5.67.75,7.64,2.2a27.08,27.08,0,0,0-1.14-7.35s-23.46-2-28.41,13.85"/><path class="cls-6" d="M91.46,124.28a27.4,27.4,0,0,1,21.6-8,12.86,12.86,0,0,1,6.64,2,1.33,1.33,0,0,0,2-1.15,28.68,28.68,0,0,0-1.18-7.7,1.37,1.37,0,0,0-1.28-1,40.11,40.11,0,0,0-8.48.29c-5.57.71-11.19,2.36-15.59,6a16,16,0,0,0-1.74,1.66,14.16,14.16,0,0,0-1.5,2.11,12.08,12.08,0,0,0-2,5.14c-.08.89,1.21,1.15,1.62.44.76-1.31,1.34-2.7,2.22-4,.35-.49.79-.92,1.27-1.47s1-1,1.47-1.49c.25-.22.5-.44.76-.65l.22-.18.4-.3c.57-.41,1.16-.79,1.77-1.15s1.16-.64,1.75-.92l.9-.4.25-.1.51-.2a34.5,34.5,0,0,1,7.43-1.83l.21,0c-.29,0-.09,0,0,0l.42,0,.87-.1,1.61-.13c.91-.06,1.83-.09,2.75-.1s1.92,0,2.88.09l-1.28-1a26,26,0,0,1,1.09,7l2-1.14a14.08,14.08,0,0,0-6.69-2.22,27.56,27.56,0,0,0-6.85.1A30.21,30.21,0,0,0,95,118.4a16.94,16.94,0,0,0-5,4.78c-.57.87.71,1.83,1.43,1.1Z"/><path class="cls-6" d="M166,123.64c-4.49-5.63-13.42-9.17-21.92-8.7-2.81.15-5.66.75-7.63,2.2a26.69,26.69,0,0,1,1.13-7.35s20.86-2,28.42,13.85"/><path class="cls-6" d="M166.79,123.18c-2.32-3.54-6.15-5.81-10-7.35a30.43,30.43,0,0,0-13.34-2.15,15,15,0,0,0-7.65,2.32l2,1.14a26.4,26.4,0,0,1,1.08-7l-1.28,1a34,34,0,0,1,7.41.24l.12,0,.38.05.88.14c.57.1,1.14.22,1.71.35a32.58,32.58,0,0,1,3.63,1,25.14,25.14,0,0,1,6.94,3.7c1.18.92,2.34,2.24,3.52,3.31s2.12,2.91,3.21,4.31c.58.73,1.64-.08,1.46-.85a13.46,13.46,0,0,0-2.31-4.52,17.43,17.43,0,0,0-1.52-2,19.77,19.77,0,0,0-1.62-1.55,27.07,27.07,0,0,0-7.7-4.5,37.82,37.82,0,0,0-13.35-2.47,25.44,25.44,0,0,0-2.76.08,1.39,1.39,0,0,0-1.28,1,29.49,29.49,0,0,0-1.18,7.7,1.34,1.34,0,0,0,2,1.15,12.09,12.09,0,0,1,5.77-2,27.66,27.66,0,0,1,6.43.07,26.19,26.19,0,0,1,16,7.88c.71.72,2-.22,1.42-1.1Z"/><ellipse class="cls-3" cx="129.06" cy="143.21" rx="7.85" ry="5.41"/><circle class="cls-3" cx="119.82" cy="142.23" r="3.67"/><circle class="cls-3" cx="138.31" cy="142.23" r="3.67"/><path class="cls-4" d="M149.48,153.68s-7.5,15.6-20.42,15.6-20.44-15.6-20.44-15.6c5.37,2.12,12.44.44,13.85.08l.26-.08a5.22,5.22,0,0,1,2-.38,5.83,5.83,0,0,1,4.33,1.93,5.66,5.66,0,0,1,4.28-1.93,5.58,5.58,0,0,1,2.16.42l.12,0C137.09,154.14,144.12,155.78,149.48,153.68Z"/></g></svg>