<svg xmlns="http://www.w3.org/2000/svg" viewBox="0 0 256 256"><defs><style>.cls-1{fill:#21617a;}.cls-2{fill:#d0abb3;}.cls-3{fill:#d5b3ba;}.cls-4{fill:#c6b6d1;}.cls-5{fill:none;stroke:#fff;stroke-miterlimit:10;}.cls-5,.cls-8{stroke-width:2.08px;}.cls-6{fill:#d3d6e5;}.cls-7{fill:#b95a8c;}.cls-8{fill:#fff;stroke:#b95a8c;stroke-linecap:round;stroke-linejoin:round;}</style></defs><g id="Layer_7" data-name="Layer 7"><path class="cls-1" d="M216.29,252.67v33.21a39.92,39.92,0,0,1-39.8,39.81H79.57a39.92,39.92,0,0,1-39.8-39.81V252.67a39.93,39.93,0,0,1,39.8-39.81h23.35a6.44,6.44,0,0,0,3.46-1,6.52,6.52,0,0,0,3-4.31,154.18,154.18,0,0,0,2.46-20.16H144a154.18,154.18,0,0,0,2.46,20.16,6.61,6.61,0,0,0,6.47,5.3h23.56A39.93,39.93,0,0,1,216.29,252.67Z"/><path class="cls-2" d="M182.89,47.16V147.23H73.17V47.2a35.65,35.65,0,0,1,1.56-10.4,35,35,0,0,1,4.55-9.47l6.12,9,6.1-9,6.09,9,6.1-9,6.09,9,0-.06,6.06-8.93,6.1,9,6.09-9,6.1,9,6.09-9,6.1,9,6.1-9,6.07,9,6.1-9,6.09,9,6.08-9,0,0A35.41,35.41,0,0,1,182.89,47.16Z"/><polygon class="cls-3" points="109.83 36.26 109.83 125.11 97.59 125.11 97.59 36.32 103.69 27.33 109.78 36.32 109.83 36.26"/><path class="cls-4" d="M182.89,147.23a54.86,54.86,0,1,1-109.72,0c0-30.3,24.56-46.36,54.86-46.36S182.89,116.93,182.89,147.23Z"/><rect class="cls-4" x="69.24" y="143.07" width="8.3" height="21.48" rx="1.99"/><rect class="cls-4" x="178.74" y="143.07" width="8.3" height="21.48" rx="1.99"/><circle class="cls-5" cx="107.7" cy="142.24" r="13.45"/><circle class="cls-5" cx="148.79" cy="142.24" r="13.45"/><line class="cls-5" x1="94.25" y1="142.24" x2="70.33" y2="142.24"/><line class="cls-5" x1="186.16" y1="142.24" x2="162.24" y2="142.24"/><path class="cls-5" d="M121.16,142.24s7.07-5,14.17,0"/><ellipse class="cls-6" cx="128.25" cy="158.26" rx="9.77" ry="4.7"/><circle class="cls-7" cx="113.1" cy="145.04" r="3.91"/><circle class="cls-7" cx="143.42" cy="145.04" r="3.91"/><path class="cls-8" d="M107.71,164.55s5.68,3.59,16.14,5.16,16.85.39,16.85.39-5.19,14.41-19.4,12.28S107.71,164.55,107.71,164.55Z"/></g></svg>