<svg xmlns="http://www.w3.org/2000/svg" viewBox="0 0 256 256"><defs><style>.cls-1{fill:#d0abb3;}.cls-2{fill:#b95a8c;}.cls-3{fill:#21617a;}.cls-4,.cls-6,.cls-9{fill:none;}.cls-4{stroke:#497e92;stroke-width:6.24px;}.cls-4,.cls-6,.cls-8,.cls-9{stroke-linecap:round;}.cls-4,.cls-6{stroke-miterlimit:10;}.cls-5{fill:#497e92;}.cls-6{stroke:#d8bac1;}.cls-6,.cls-8,.cls-9{stroke-width:2.08px;}.cls-7{fill:#cc86ab;}.cls-8{fill:#fff;}.cls-8,.cls-9{stroke:#21617a;stroke-linejoin:round;}</style></defs><g id="Layer_8" data-name="Layer 8"><path class="cls-1" d="M216,253.65v33.21a39.93,39.93,0,0,1-39.81,39.81H79.24a39.93,39.93,0,0,1-39.81-39.81V253.65a39.93,39.93,0,0,1,39.81-39.81h23.34a6.61,6.61,0,0,0,6.47-5.3,154.23,154.23,0,0,0,2.46-20.17h32.15a156.27,156.27,0,0,0,2.46,20.17,6.58,6.58,0,0,0,3,4.31,6.46,6.46,0,0,0,3.46,1h23.56A39.93,39.93,0,0,1,216,253.65Z"/><path class="cls-2" d="M184.52,143.8c0,34.29-34.4,62.09-56.83,62.09-20.69,0-56.51-27.8-56.51-62.09S96.63,81.72,128,81.72,184.52,109.51,184.52,143.8Z"/><path class="cls-3" d="M70.87,143.8S41.09,94.68,80.28,62.19c0,0,46.55-16.42,92.44,0,0,0,36.85,25.36,11.8,81.86l-.64-1.86a25,25,0,0,0-4-6.92,4.59,4.59,0,0,1,.39-6l1.72-1.74h0a4.59,4.59,0,0,1-3.36-7.62h-.11a4.6,4.6,0,0,1-3.87-7.36l.06-.09-.27,0a4.6,4.6,0,0,1-4.51-7l.14-.24-.53.14a4.6,4.6,0,0,1-5.32-6.3l.22-.51-.91.4a4.6,4.6,0,0,1-6.34-5.14l.2-1-.2.14a4.6,4.6,0,0,1-7.21-4.11l0-.24-.34.29c-2.92,2.46-8.34.25-8.49-3.57v-.45l-.48.52c-2.54,2.8-10.73,2-11.46-1.74C129.18,83.71,92.36,91.85,70.87,143.8Z"/><path class="cls-4" d="M127.93,85.19s-40.77,15.29-57.06,68.16c-4.07,13.21-3.71,29.41-.86,46.27"/><path class="cls-4" d="M118.75,85.88S87,98.63,70.87,139.51c-6.05,15.33-11,31.93-10.9,45.54"/><path class="cls-4" d="M108.93,85.19S61.15,104.64,75.1,181.64"/><path class="cls-5" d="M101,43.54c-5.39-1.69-17-6.22-21.5-5.62s-8.72,2.59-12.78,4.65a12.09,12.09,0,0,0-4.14,2.93,11.92,11.92,0,0,0-2,5.35c-.8,4.29-1.45,8.61-1.92,12.94A29.21,29.21,0,0,0,58.77,73a11.21,11.21,0,0,0,5,7.52c2.72,1.56,6.07,1.5,9.17,1a69.5,69.5,0,0,0,16.25-5c4.84-2,9.67-4.25,13.59-7.73s6.84-8.37,6.86-13.61A12.54,12.54,0,0,0,101,43.54Z"/><path class="cls-5" d="M155.57,42.41c11.57-7,17.35-5.1,21.82-4.21s8.35,3.48,12.45,5.48c5.87,2.85,5.6,9.16,5.83,11.07.53,4.33.61,6.27.8,10.63a29.32,29.32,0,0,1-.65,9.21,11.21,11.21,0,0,1-5.44,7.18c-2.81,1.38-6.15,1.1-9.21.44a69.65,69.65,0,0,1-15.9-6c-4.69-2.32-9.38-4.87-13.06-8.6s-4.53-8.45-4.2-13.67S151.09,45.13,155.57,42.41Z"/><path class="cls-6" d="M114,137.71c-10.26-6.83-20,0-20,0l-4.32-5.93"/><line class="cls-6" x1="98.93" y1="135.46" x2="97.4" y2="129.98"/><path class="cls-6" d="M140.47,137.71c10.25-6.83,20,0,20,0l4.32-5.93"/><line class="cls-6" x1="155.48" y1="135.46" x2="157.02" y2="129.98"/><path class="cls-7" d="M130.21,136.15a2.76,2.76,0,0,0-5.22,0c-3.06,8.81-6.62,23.16,2.61,23.16S133.27,145,130.21,136.15Z"/><path class="cls-8" d="M103.72,170.55a4,4,0,0,1,5.16-5c4,1.4,10,2.62,18.72,2.62,9.1,0,15.35-1.32,19.48-2.79a4,4,0,0,1,5.12,5c-2.68,8.24-9.09,19.23-24.27,19.23S106.43,178.77,103.72,170.55Z"/><path class="cls-3" d="M118,114.05V120c0,2.76-3.69,4.64-7.23,3.75-5.36-1.35-13-2.25-20.52.37C90.29,124.11,99.38,112.63,118,114.05Z"/><path class="cls-3" d="M137.34,112.51v5.95c0,2.76,3.69,4.63,7.23,3.74,5.36-1.34,13-2.25,20.53.37C165.1,122.57,156,111.1,137.34,112.51Z"/><rect class="cls-2" x="181.98" y="133.42" width="8.9" height="21.65" rx="1.59"/><line class="cls-9" x1="106.75" y1="177.38" x2="149.12" y2="177.38"/></g></svg>