<svg xmlns="http://www.w3.org/2000/svg" viewBox="0 0 256 256"><defs><style>.cls-1{fill:#21617a;}.cls-2{fill:#c6b6d1;}.cls-3{fill:#b95a8c;}.cls-4{fill:#d3d6e5;}.cls-5{fill:none;stroke:#21617a;stroke-linecap:round;}.cls-5,.cls-6{stroke-miterlimit:10;stroke-width:2.08px;}.cls-6{fill:#fff;stroke:#b95a8c;}.cls-7{fill:#c679a2;}</style></defs><g id="Layer_4" data-name="Layer 4"><path class="cls-1" d="M175.6,212.1H152a6.6,6.6,0,0,1-6.47-5.3,156,156,0,0,1-2.46-20.16H111a156,156,0,0,1-2.46,20.16,6.58,6.58,0,0,1-6.47,5.3H78.69a39.93,39.93,0,0,0-39.81,39.82v33.2a39.92,39.92,0,0,0,39.81,39.81H175.6a39.93,39.93,0,0,0,39.81-39.81v-33.2A39.94,39.94,0,0,0,175.6,212.1Z"/><rect class="cls-2" x="74.1" y="70.04" width="106.09" height="131.27" rx="20.45"/><rect class="cls-2" x="65.37" y="129.39" width="12.8" height="26.08" rx="2.54"/><rect class="cls-2" x="176.68" y="129.39" width="12.8" height="26.08" rx="2.54"/><path class="cls-3" d="M81.28,59.07s-21.19,17.05-21.19,41.7,14,50.45,14,50.45-1.22-51.06,16.81-69.07Z"/><path class="cls-3" d="M180.2,151.23s3.33-47-19.1-70.45a0,0,0,0,1,0,0,10.13,10.13,0,0,1-1.91-2.38l.41-4.34c8.45-2.2,13.44-15,13.44-15s21.18,17,21.18,41.7S180.2,151.23,180.2,151.23Z"/><path class="cls-4" d="M127.29,121.21s-21.72,33.21,0,33.64S127.29,121.21,127.29,121.21Z"/><path class="cls-5" d="M105.09,142.44a10.41,10.41,0,0,1,0-20.82"/><circle class="cls-1" cx="105.09" cy="132.03" r="4.67"/><path class="cls-5" d="M148.06,121.62a10.41,10.41,0,0,1,0,20.82"/><circle class="cls-1" cx="148.06" cy="132.03" r="4.67"/><path class="cls-3" d="M116.93,103.05v8.06a5.42,5.42,0,0,1-7.23,5.08c-5.36-1.83-13-3.06-20.53.5C89.17,116.69,98.26,101.14,116.93,103.05Z"/><path class="cls-3" d="M136.23,103.05v8.06a5.42,5.42,0,0,0,7.23,5.08c5.36-1.83,13-3.06,20.52.5C164,116.69,154.89,101.14,136.23,103.05Z"/><path class="cls-6" d="M107.66,161.24h39.25a3.31,3.31,0,0,1,3.29,3.82c-1.14,7.15-5.59,21.86-22.91,21.86s-21.77-14.71-22.91-21.86A3.31,3.31,0,0,1,107.66,161.24Z"/><line class="cls-6" x1="106.19" y1="172" x2="148.38" y2="172"/><path class="cls-7" d="M97.39,79.6C93.33,81,90.9,82.16,90.9,82.16S79.58,77.54,75.84,58.1s13-33.74,13-33.74a39.93,39.93,0,0,0,7.47,7c-3.62,4.76-8.3,14.17-6.12,29.21A43.23,43.23,0,0,0,97.39,79.6Z"/><path class="cls-3" d="M160.2,79.85s-10.82-6.47-30.48-6.47c-12.63,0-25,3.62-32.33,6.22a43.23,43.23,0,0,1-7.22-19c-2.18-15,2.5-24.45,6.12-29.21,22,16.41,66,24,66,24C167.07,72,160.2,79.85,160.2,79.85Z"/></g></svg>