<svg xmlns="http://www.w3.org/2000/svg" viewBox="0 0 256 256"><defs><style>.cls-1{fill:#c6b6d1;}.cls-2{fill:#c679a2;}.cls-3{fill:#b95a8c;}.cls-4{fill:#d0abb3;}.cls-5{fill:none;stroke:#21617a;stroke-linecap:round;stroke-linejoin:round;stroke-width:1.98px;}.cls-6{fill:#21617a;}</style></defs><g id="Layer_12" data-name="Layer 12"><path class="cls-1" d="M226.1,246.53V283.8a44.81,44.81,0,0,1-44.67,44.67H72.68A44.8,44.8,0,0,1,28,283.8V246.53a44.8,44.8,0,0,1,44.67-44.67H98.87s6.27,21.57,29.55,21.57S155,201.86,155,201.86h26.44A44.81,44.81,0,0,1,226.1,246.53Z"/><path class="cls-2" d="M155,201.86s-3.31,21.57-26.57,21.57-29.55-21.57-29.55-21.57a7.41,7.41,0,0,0,7.27-6,173.19,173.19,0,0,0,2.75-22.63H145a176.41,176.41,0,0,0,2.78,22.63A7.4,7.4,0,0,0,155,201.86Z"/><path class="cls-3" d="M182,110.52c0,26.59-10.28,52.72-29.19,65.26a27.33,27.33,0,0,0-6.78,6.91c-3.63,5-12.08,8.45-18.94,8.45-7.42,0-16.47-4-19.63-9.68a22.33,22.33,0,0,0-6.43-7c-17.87-13.1-27.32-38.24-27.32-64,0-35.45,24.23-52.27,54.14-52.27S182,75.07,182,110.52Z"/><rect class="cls-3" x="66.18" y="107.04" width="11.3" height="30.77" rx="2.85"/><rect class="cls-3" x="174.57" y="107.04" width="11.3" height="30.77" rx="2.85"/><path class="cls-4" d="M77.43,142.7a7.93,7.93,0,0,0,5-8.48,7,7,0,0,0,.47-10.6,49.77,49.77,0,0,0,1.83-11.25c.1-2.11-.43-4.86-2.52-5.19a6.48,6.48,0,0,0-3.58-8.39c1.36-.56,1-2.85-.38-3.46S75.3,95.3,74,96a7.2,7.2,0,0,0-3,2.84,3.42,3.42,0,0,0,.4,3.87,4.87,4.87,0,0,0,.36,7.45,6.89,6.89,0,0,0,2.36,9.58,5.67,5.67,0,0,0-1.8,8,3.11,3.11,0,0,1,.83,1.51c.05.75-.58,1.35-.88,2.05-.84,2,1.2,4,1.23,6.21a15.25,15.25,0,0,0-.09,2c.2,1.46,2.61,3.69,4,3.11"/><path class="cls-4" d="M176.36,95.17a8,8,0,0,0-5,8.48,7,7,0,0,0-.46,10.6c-1,3.67-2,4.2-2.2,8-.1,2.12.8,8.11,2.89,8.45a6.46,6.46,0,0,0,3.58,8.38c-1.37.56-1,2.86.38,3.46s2.91,0,4.18-.71a7.24,7.24,0,0,0,3-2.83,3.43,3.43,0,0,0-.4-3.88,4.88,4.88,0,0,0-.36-7.45,6.89,6.89,0,0,0-2.37-9.58,5.66,5.66,0,0,0,1.81-8,3,3,0,0,1-.83-1.51c-.05-.75.58-1.35.87-2,.85-2-1.19-4.06-1.22-6.22a17.07,17.07,0,0,0,.09-2c-.2-1.45-2.62-3.69-4-3.11"/><path class="cls-4" d="M149.65,72.55l.78-.26A7.12,7.12,0,0,0,154,75.48c0-6.69,1.47-13.29,2.77-20a7.42,7.42,0,0,0-8.6,1.27,9.23,9.23,0,0,0-12.39-1.73c-.93-2.1-3.57-2.72-5.82-2.66s-4.64.49-6.68-.51c-1.1-.55-2-1.49-3.24-1.74-1.79-.37-3.46.9-5.17,1.54-3.43,1.27-7.35,0-10.84,1.06a8.71,8.71,0,0,0-4.86,3.8,6,6,0,0,0-8.56,2A6.73,6.73,0,0,0,81.94,60l-1.15,2a12,12,0,0,0-6.27,2.92c-1.66,1.68-2.44,4.43-1.31,6.51A7.77,7.77,0,0,0,68.1,81a8.66,8.66,0,0,0-2.66,7.87A16.37,16.37,0,0,1,66,91.61c0,1.69-.94,3.22-1.33,4.87s.19,3.86,1.84,4.08A10.66,10.66,0,0,0,69.08,111a5.37,5.37,0,0,0,1.13,7.71,9.91,9.91,0,0,1,2,1.27,11,11,0,0,0,.89,1,2.25,2.25,0,0,0,2.87-.41,7,7,0,0,0,1.42-2.85c1.76-.45,2.65-2.5,2.81-4.35s-.14-3.75.39-5.53c.72-2.39,2.87-4.2,3.24-6.67.13-.89,0-1.79.16-2.68.28-1.78,1.52-3.22,2.44-4.76S88,90.17,87,88.67a5.82,5.82,0,0,0,5.36-3.4,3.45,3.45,0,0,1,.94-1.55,2.93,2.93,0,0,1,1.44-.36,11.08,11.08,0,0,0,8.16-5.06,10.18,10.18,0,0,0,11-4.81,7,7,0,0,0,9.27-2,7.27,7.27,0,0,0,7,2c2.53-.51,4.58-2,6.84-3.09,4.54,5.29,12.33,4.63,18.37,6.36-.2,4.36,4.36,4.87,4.46,8.77A6.5,6.5,0,0,0,166,91.66,15.7,15.7,0,0,0,167.73,97a5.16,5.16,0,0,0,4.53,2.68,5.68,5.68,0,0,0,3.31,5.68,5.48,5.48,0,0,0,6.27-1.67c1.15,1.16,2.75,2.32,4.25,1.72,1-.41,1.33-1.69,2-2.56,2.58-3.11-.48-8.42-.48-8.42s2.62-5.57,1.93-8.67c-.48-2.1-1.47-4.44-3.51-5a6.87,6.87,0,0,0-3.51-9.41c1.48-2.35.48-5.66-1.51-7.58s-4.72-2.79-7.35-3.61c-2.81-.88-6.44-1.51-8.21.89"/><path class="cls-4" d="M107,55.07c.89-2.56,2.13-5.14,4.32-6.73s5.54-1.85,7.47,0a5.74,5.74,0,0,1,10.13-1.33c3.42-3,9.67-1.53,11.38,2.7,2.94-3.48,9.32-2.95,11.65,1a17.17,17.17,0,0,1,6.1-2.34c2.18-.24,4.61.54,5.71,2.44a5.58,5.58,0,0,0,1.05,1.66,3.78,3.78,0,0,0,2.11.58,8.46,8.46,0,0,1,5.3,2.19,4.62,4.62,0,0,1,1,5.36,4.66,4.66,0,0,1,.35,8.64A4.77,4.77,0,0,1,172,74.59"/><path class="cls-4" d="M185,100.28a9.73,9.73,0,0,1-3.48,17.07,4.33,4.33,0,0,1-2.71,0c-.85-.36-1.64-1.16-2.54-.93l-1.05-13.28Z"/><path class="cls-4" d="M70.4,117a4.48,4.48,0,0,0-.66,1.31c-.1.33-.21.66-.32,1a20,20,0,0,0-.61,2.14,8.09,8.09,0,0,0,.45,5.16,5.7,5.7,0,0,0,3.6,3,6,6,0,0,0,2.14.23c1.39-.13,2.63-.53,3.13-2a2.24,2.24,0,0,0-1-2.52,2.71,2.71,0,0,0-2-.22l-.37.1c-.28.07.59,0,.18,0-.13,0-.25,0-.38,0s-.49-.06-.07,0,0,0-.07,0L74,125l-.18-.06.26.11a.94.94,0,0,0-.28-.15l-.27-.17-.15-.11c-.15-.1-.07,0,.22.17,0-.08-.17-.16-.24-.22-.35-.36.17.29,0,.06s-.15-.21-.21-.32a1.86,1.86,0,0,1-.1-.2c-.08-.15,0-.09.07.18-.12-.06-.19-.6-.22-.73l-.06-.3,0,.27a2.42,2.42,0,0,0,0-.46q0-.39,0-.78l0-.46c0-.45-.06.35,0-.14s.21-1.2.33-1.8c.05-.31.11-.62.16-.94a3.89,3.89,0,0,0-.14-1.59A1.57,1.57,0,0,0,72,116.2a1.6,1.6,0,0,0-1.56.75Z"/><path class="cls-4" d="M91.26,78a17.15,17.15,0,0,0,8.36,5.23,9.9,9.9,0,0,0,9.26-2.38,14,14,0,0,0,12.79-1.7,5.38,5.38,0,0,1,1.89-1.06c1.14-.23,2.24.43,3.33.82,3,1,6.27.06,9.09-1.35a6.69,6.69,0,0,1,2.43-.87c1.39-.09,2.63.78,3.87,1.41a12.54,12.54,0,0,0,6.7,1.32,7.39,7.39,0,0,1,2.89,0,8.2,8.2,0,0,1,1.7,1,11.09,11.09,0,0,0,12-.14L145.66,61.05l-40.44,3.71Z"/><path class="cls-5" d="M137.27,115.62c10.84-5.59,18.65,2.91,18.65,2.91l1.83-1.64"/><circle class="cls-6" cx="141.64" cy="117.88" r="3.47"/><path class="cls-5" d="M118.6,116.11C108.09,109.94,99.82,118,99.82,118l-2.35-1.82"/><circle class="cls-6" cx="105.66" cy="117.97" r="3.47"/><path class="cls-2" d="M136,138.77c0,3-3.51,5.4-7.84,5.4s-7.85-2.42-7.85-5.4a4.32,4.32,0,0,1,1.39-3.08,13.15,13.15,0,0,0,3.59-9.44V114.5H131v11.71a13.24,13.24,0,0,0,3.59,9.47A4.36,4.36,0,0,1,136,138.77Z"/><path class="cls-4" d="M122.27,106.3c1.15-.24,1-1,1-2.17a1.82,1.82,0,0,0-2.42-1.67,3.93,3.93,0,0,0-5.94-1.18,4,4,0,0,0-6.88.39A6.33,6.33,0,0,0,99.3,104,4.8,4.8,0,0,0,93,107.34a2.81,2.81,0,0,0-2.39,3.35,1.52,1.52,0,0,0,1.35,1.25,3,3,0,0,0,1.25-.54c1.19-.65,2.63-.55,4-.76s2.83-1,3-2.37a6.63,6.63,0,0,0,3.35.78,2.72,2.72,0,0,0,2.5-2.06,5.48,5.48,0,0,0,7.16-.2,7.11,7.11,0,0,0,8.53.53c.38-.26.77-.72.56-1.14"/><path class="cls-4" d="M133.54,100.35c-1.13-.3-1-1-.9-2.22a1.82,1.82,0,0,1,2.51-1.53,3.94,3.94,0,0,1,6-.85,4,4,0,0,1,6.85.77,6.33,6.33,0,0,1,8.6,2.83,4.81,4.81,0,0,1,6.15,3.67,2.8,2.8,0,0,1,2.2,3.48,1.51,1.51,0,0,1-1.41,1.17,2.87,2.87,0,0,1-1.22-.61c-1.15-.72-2.6-.69-3.93-1s-2.77-1.17-2.81-2.53a6.66,6.66,0,0,1-3.39.6,2.72,2.72,0,0,1-2.38-2.2,5.48,5.48,0,0,1-7.14-.6,7.1,7.1,0,0,1-8.54.06c-.37-.28-.73-.76-.5-1.17"/><path class="cls-5" d="M107.94,144.18A25.43,25.43,0,0,0,132.57,154"/></g></svg>